<svg width="1245.1240478515624px" height="120.8px" xmlns="http://www.w3.org/2000/svg" viewBox="-372.5620239257812 14.600000000000001 1245.1240478515624 120.8" style="background: rgba(0, 0, 0, 0);" preserveAspectRatio="xMidYMid"><defs><linearGradient id="editing-gradient-gradient" x1="0" x2="1" y1="0.5" y2="0.5" gradientUnits="objectBoundingBox"><stop offset="0" stop-color="#f0f"></stop><stop offset="1" stop-color="#0ff"></stop></linearGradient></defs><g><g transform="translate(-200.13012209534645, 99.03000068664551)"><path d="M24.96-4.80L24.96-4.80L24.96-4.80Q24.96-9.28 26.75-18.24L26.75-18.24L17.28-18.24L13.76 0L0.38 0L8.51-42.24L22.02-42.24L18.30-23.36L27.78-23.36L31.30-42.24L44.80-42.24L44.80-42.24Q43.90-37.50 42.75-32.19L42.75-32.19L40.58-21.76L40.58-21.76Q38.14-9.60 38.14-4.29L38.14-4.29L38.14-4.29Q38.14-2.11 38.85-0.90L38.85-0.90L38.85-0.90Q35.65 1.28 31.90 1.28L31.90 1.28L31.90 1.28Q28.16 1.28 26.56-0.51L26.56-0.51L26.56-0.51Q24.96-2.30 24.96-4.80ZM61.70-3.52L61.70-3.52L61.70-3.52Q59.71 1.28 53.38 1.28L53.38 1.28L53.38 1.28Q50.11 1.28 48.06-0.96L48.06-0.96L48.06-0.96Q46.34-2.94 46.34-4.93L46.34-4.93L46.34-4.93Q46.34-10.11 48.70-20.22L48.70-20.22L51.07-32.64L64.06-33.92L60.16-13.70L60.16-13.70Q59.07-8.96 59.07-7.30L59.07-7.30L59.07-7.30Q59.07-3.65 61.70-3.52ZM52.22-41.54L52.22-41.54L52.22-41.54Q52.22-44.03 54.30-45.38L54.30-45.38L54.30-45.38Q56.38-46.72 59.39-46.72L59.39-46.72L59.39-46.72Q62.40-46.72 64.22-45.38L64.22-45.38L64.22-45.38Q66.05-44.03 66.05-41.54L66.05-41.54L66.05-41.54Q66.05-39.04 64.03-37.76L64.03-37.76L64.03-37.76Q62.02-36.48 59.01-36.48L59.01-36.48L59.01-36.48Q56-36.48 54.11-37.76L54.11-37.76L54.11-37.76Q52.22-39.04 52.22-41.54ZM78.59-3.78L78.59-3.78L78.59-3.78Q78.59-6.21 80.42-7.52L80.42-7.52L80.42-7.52Q82.24-8.83 84.93-8.83L84.93-8.83L84.93-8.83Q87.62-8.83 89.31-7.52L89.31-7.52L89.31-7.52Q91.01-6.21 91.01-3.78L91.01-3.78L91.01-3.78Q91.01-1.34 89.12 0L89.12 0L89.12 0Q87.23 1.34 84.54 1.34L84.54 1.34L84.54 1.34Q81.86 1.34 80.22 0L80.22 0L80.22 0Q78.59-1.34 78.59-3.78ZM82.05-15.81L82.05-15.81L82.05-15.81Q82.05-16.26 82.18-16.90L82.18-16.90L87.17-42.62L87.17-42.62Q89.54-43.52 92.35-43.52L92.35-43.52L92.35-43.52Q95.17-43.52 96.64-41.73L96.64-41.73L96.64-41.73Q98.11-39.94 98.11-37.28L98.11-37.28L98.11-37.28Q98.11-34.62 97.09-31.65L97.09-31.65L97.09-31.65Q96.06-28.67 94.82-25.66L94.82-25.66L94.82-25.66Q93.57-22.66 92.51-19.55L92.51-19.55L92.51-19.55Q91.46-16.45 91.39-13.18L91.39-13.18L91.39-13.18Q89.92-11.52 87.36-11.52L87.36-11.52L87.36-11.52Q84.80-11.52 83.42-12.70L83.42-12.70L83.42-12.70Q82.05-13.89 82.05-15.81ZM125.31 0L111.36 0L119.49-42.24L133.57-42.24L125.31 0ZM150.94-1.92L150.94-1.92L150.94-1.92Q149.44-3.58 148.77-6.21L148.77-6.21L148.77-6.21Q148.10-8.83 148.10-13.12L148.10-13.12L148.10-13.12Q148.10-17.41 149.57-21.31L149.57-21.31L149.57-21.31Q151.04-25.22 153.73-28.03L153.73-28.03L153.73-28.03Q159.23-33.92 168.32-33.92L168.32-33.92L168.32-33.92Q171.58-33.92 173.95-32.83L173.95-32.83L184.90-33.92L180.16-8.96L180.16-8.96Q179.97-8.19 179.97-6.78L179.97-6.78L179.97-6.78Q179.97-5.38 180.83-4.48L180.83-4.48L180.83-4.48Q181.70-3.58 182.98-3.46L182.98-3.46L182.98-3.46Q182.34-1.28 180 0L180 0L180 0Q177.66 1.28 175.04 1.28L175.04 1.28L175.04 1.28Q172.42 1.28 170.66 0.29L170.66 0.29L170.66 0.29Q168.90-0.70 168.38-2.37L168.38-2.37L168.38-2.37Q167.36-0.77 165.18 0.26L165.18 0.26L165.18 0.26Q163.01 1.28 160.10 1.28L160.10 1.28L160.10 1.28Q157.18 1.28 154.82 0.51L154.82 0.51L154.82 0.51Q152.45-0.26 150.94-1.92ZM164.45-27.90L164.45-27.90L164.45-27.90Q163.71-26.75 163.07-24.80L163.07-24.80L163.07-24.80Q162.43-22.85 161.38-17.63L161.38-17.63L161.38-17.63Q160.32-12.42 160.32-8.70L160.32-8.70L160.32-8.70Q160.32-4.99 160.90-3.90L160.90-3.90L160.90-3.90Q161.47-2.82 162.50-2.82L162.50-2.82L162.50-2.82Q164.54-2.82 166.05-4.77L166.05-4.77L166.05-4.77Q167.55-6.72 168.13-10.18L168.13-10.18L171.52-28.93L171.52-28.93Q170.18-30.08 168.61-30.08L168.61-30.08L168.61-30.08Q167.04-30.08 166.11-29.57L166.11-29.57L166.11-29.57Q165.18-29.06 164.45-27.90ZM234.43 1.28L234.43 1.28L234.43 1.28Q226.69 1.28 226.69-4.74L226.69-4.74L226.69-4.74Q226.69-7.36 227.81-12.45L227.81-12.45L227.81-12.45Q228.93-17.54 229.31-19.58L229.31-19.58L229.31-19.58Q230.21-24.26 230.21-25.73L230.21-25.73L230.21-25.73Q230.21-28.99 227.78-28.99L227.78-28.99L227.78-28.99Q226.18-28.99 224.64-26.78L224.64-26.78L224.64-26.78Q223.10-24.58 222.40-20.16L222.40-20.16L218.43 0L205.95 1.28L209.41-16.13L209.41-16.13Q209.98-19.01 210.50-22.27L210.50-22.27L210.50-22.27Q211.01-25.54 211.01-26.05L211.01-26.05L211.01-26.05Q211.01-28.99 208.83-28.99L208.83-28.99L208.83-28.99Q207.36-28.99 205.76-26.82L205.76-26.82L205.76-26.82Q204.16-24.64 203.26-20.16L203.26-20.16L199.36 0L186.75 1.28L193.47-32.64L203.90-33.92L202.82-27.46L202.82-27.46Q204.48-30.91 207.55-32.42L207.55-32.42L207.55-32.42Q210.62-33.92 215.42-33.92L215.42-33.92L215.42-33.92Q218.18-33.92 219.97-32.58L219.97-32.58L219.97-32.58Q221.76-31.23 222.34-29.06L222.34-29.06L222.34-29.06Q223.42-31.30 226.21-32.61L226.21-32.61L226.21-32.61Q228.99-33.92 232.42-33.92L232.42-33.92L232.42-33.92Q235.84-33.92 237.54-33.18L237.54-33.18L237.54-33.18Q239.23-32.45 240.26-31.23L240.26-31.23L240.26-31.23Q241.98-28.99 241.98-24.90L241.98-24.90L241.98-24.90Q241.98-20.86 240.26-12.48L240.26-12.48L240.26-12.48Q239.36-8.38 239.36-6.88L239.36-6.88L239.36-6.88Q239.36-5.38 240.22-4.48L240.22-4.48L240.22-4.48Q241.09-3.58 242.37-3.46L242.37-3.46L242.37-3.46Q241.73-1.28 239.52 0L239.52 0L239.52 0Q237.31 1.28 234.43 1.28ZM285.44-29.57L285.44-29.57L285.44-29.57Q286.40-31.49 286.40-33.28L286.40-33.28L286.40-33.28Q286.40-35.07 286.21-36.06L286.21-36.06L286.21-36.06Q286.02-37.06 285.57-37.82L285.57-37.82L285.57-37.82Q284.61-39.49 282.69-39.49L282.69-39.49L282.69-39.49Q280.32-39.49 278.40-37.76L278.40-37.76L278.40-37.76Q276.35-35.97 276.35-33.15L276.35-33.15L276.35-33.15Q276.35-31.36 277.60-29.98L277.60-29.98L277.60-29.98Q278.85-28.61 280.77-27.33L280.77-27.33L280.77-27.33Q282.69-26.05 284.86-24.77L284.86-24.77L284.86-24.77Q287.04-23.49 288.96-21.95L288.96-21.95L288.96-21.95Q293.38-18.43 293.38-13.70L293.38-13.70L293.38-13.70Q293.38-10.50 291.68-7.78L291.68-7.78L291.68-7.78Q289.98-5.06 287.17-3.07L287.17-3.07L287.17-3.07Q281.02 1.28 272.90 1.28L272.90 1.28L272.90 1.28Q266.30 1.28 262.91-0.86L262.91-0.86L262.91-0.86Q259.52-3.01 259.52-6.27L259.52-6.27L259.52-6.27Q259.52-12.10 264.06-13.57L264.06-13.57L264.06-13.57Q265.34-14.02 267.30-14.02L267.30-14.02L267.30-14.02Q269.25-14.02 271.49-13.18L271.49-13.18L271.49-13.18Q270.46-10.56 270.46-8.19L270.46-8.19L270.46-8.19Q270.46-3.07 274.11-3.07L274.11-3.07L274.11-3.07Q276.48-3.07 278.43-4.80L278.43-4.80L278.43-4.80Q280.38-6.53 280.38-8.48L280.38-8.48L280.38-8.48Q280.38-10.43 279.14-11.84L279.14-11.84L279.14-11.84Q277.89-13.25 276.03-14.37L276.03-14.37L276.03-14.37Q274.18-15.49 272.03-16.58L272.03-16.58L272.03-16.58Q269.89-17.66 268.03-19.20L268.03-19.20L268.03-19.20Q263.68-22.72 263.68-28.35L263.68-28.35L263.68-28.35Q263.68-32 265.47-34.85L265.47-34.85L265.47-34.85Q267.26-37.70 270.14-39.62L270.14-39.62L270.14-39.62Q275.90-43.52 282.98-43.52L282.98-43.52L282.98-43.52Q290.05-43.52 293.47-41.41L293.47-41.41L293.47-41.41Q296.90-39.30 296.90-35.71L296.90-35.71L296.90-35.71Q296.90-32.58 294.46-30.59L294.46-30.59L294.46-30.59Q292.35-28.93 289.79-28.93L289.79-28.93L289.79-28.93Q287.23-28.93 285.44-29.57ZM330.43-7.10L330.43-7.10L330.43-7.10Q330.43-4.29 333.31-3.46L333.31-3.46L333.31-3.46Q332.61-1.09 329.86 0.19L329.86 0.19L329.86 0.19Q327.55 1.28 325.02 1.28L325.02 1.28L325.02 1.28Q322.50 1.28 321.18 0.61L321.18 0.61L321.18 0.61Q319.87-0.06 319.17-1.15L319.17-1.15L319.17-1.15Q318.02-2.82 318.02-5.95L318.02-5.95L318.02-5.95Q318.02-7.81 319.04-12.93L319.04-12.93L319.94-17.79L319.94-17.79Q321.02-23.36 321.02-25.41L321.02-25.41L321.02-25.41Q321.02-28.99 319.04-28.99L319.04-28.99L319.04-28.99Q316.54-28.99 314.94-25.34L314.94-25.34L314.94-25.34Q314.30-23.94 313.86-21.82L313.86-21.82L309.50 0L296.64 1.28L305.66-44.80L318.53-46.08L318.02-43.52L318.02-43.52Q316.22-33.66 314.69-30.34L314.69-30.34L314.69-30.34Q318.27-33.92 324.86-33.92L324.86-33.92L324.86-33.92Q331.84-33.92 333.12-29.31L333.12-29.31L333.12-29.31Q333.57-27.84 333.57-26.56L333.57-26.56L333.57-26.56Q333.57-25.28 333.47-24.29L333.47-24.29L333.47-24.29Q333.38-23.30 333.06-21.50L333.06-21.50L332.22-16.90L330.75-9.66L330.75-9.66Q330.43-8.19 330.43-7.10ZM359.04-2.69L359.04-2.69L359.04-2.69Q355.97 1.28 348.35 1.28L348.35 1.28L348.35 1.28Q344.38 1.28 341.50-1.12L341.50-1.12L341.50-1.12Q338.62-3.52 338.62-6.98L338.62-6.98L338.62-6.98Q338.62-8.90 338.82-9.86L338.82-9.86L343.10-32.64L356.10-33.92L351.42-9.22L351.42-9.22Q351.17-7.81 351.17-6.98L351.17-6.98L351.17-6.98Q351.17-3.26 353.41-3.26L353.41-3.26L353.41-3.26Q355.90-3.26 357.70-6.66L357.70-6.66L357.70-6.66Q358.27-7.74 358.53-9.15L358.53-9.15L363.07-32.64L375.68-33.92L370.94-8.96L370.94-8.96Q370.75-8 370.75-6.98L370.75-6.98L370.75-6.98Q370.75-5.95 371.33-4.83L371.33-4.83L371.33-4.83Q371.90-3.71 373.76-3.46L373.76-3.46L373.76-3.46Q373.38-1.92 372.03-0.90L372.03-0.90L372.03-0.90Q369.22 1.28 366.18 1.28L366.18 1.28L366.18 1.28Q363.14 1.28 361.34 0.19L361.34 0.19L361.34 0.19Q359.55-0.90 359.04-2.69ZM378.30-3.07L378.30-3.07L386.24-44.80L399.23-46.08L397.25-36.29L397.25-36.29Q396.54-33.28 395.65-31.17L395.65-31.17L395.65-31.17Q397.06-32.96 400.13-33.66L400.13-33.66L400.13-33.66Q401.02-33.92 402.11-33.92L402.11-33.92L402.11-33.92Q408.06-33.92 411.33-30.30L411.33-30.30L411.33-30.30Q414.59-26.69 414.59-19.71L414.59-19.71L414.59-19.71Q414.59-10.62 409.41-4.93L409.41-4.93L409.41-4.93Q403.84 1.28 393.73 1.28L393.73 1.28L393.73 1.28Q386.75 1.28 381.50-1.02L381.50-1.02L381.50-1.02Q379.65-1.86 378.30-3.07ZM394.56-22.40L391.17-3.65L391.17-3.65Q392.51-2.50 394.18-2.50L394.18-2.50L394.18-2.50Q395.84-2.50 396.80-3.14L396.80-3.14L396.80-3.14Q397.76-3.78 398.46-5.06L398.46-5.06L398.46-5.06Q400.38-8.51 401.92-19.07L401.92-19.07L401.92-19.07Q402.37-22.08 402.37-25.09L402.37-25.09L402.37-25.09Q402.37-28.10 401.70-29.06L401.70-29.06L401.70-29.06Q401.02-30.02 399.74-30.02L399.74-30.02L399.74-30.02Q395.84-30.02 394.56-22.40L394.56-22.40ZM450.62-7.10L450.62-7.10L450.62-7.10Q450.62-4.29 453.50-3.46L453.50-3.46L453.50-3.46Q452.80-1.09 450.05 0.19L450.05 0.19L450.05 0.19Q447.74 1.28 445.22 1.28L445.22 1.28L445.22 1.28Q442.69 1.28 441.38 0.61L441.38 0.61L441.38 0.61Q440.06-0.06 439.36-1.15L439.36-1.15L439.36-1.15Q438.21-2.82 438.21-5.95L438.21-5.95L438.21-5.95Q438.21-7.81 439.23-12.93L439.23-12.93L440.13-17.79L440.13-17.79Q441.22-23.36 441.22-25.41L441.22-25.41L441.22-25.41Q441.22-28.99 439.23-28.99L439.23-28.99L439.23-28.99Q436.74-28.99 435.14-25.34L435.14-25.34L435.14-25.34Q434.50-23.94 434.05-21.82L434.05-21.82L429.70 0L416.83 1.28L425.86-44.80L438.72-46.08L438.21-43.52L438.21-43.52Q436.42-33.66 434.88-30.34L434.88-30.34L434.88-30.34Q438.46-33.92 445.06-33.92L445.06-33.92L445.06-33.92Q452.03-33.92 453.31-29.31L453.31-29.31L453.31-29.31Q453.76-27.84 453.76-26.56L453.76-26.56L453.76-26.56Q453.76-25.28 453.66-24.29L453.66-24.29L453.66-24.29Q453.57-23.30 453.25-21.50L453.25-21.50L452.42-16.90L450.94-9.66L450.94-9.66Q450.62-8.19 450.62-7.10ZM461.47-1.92L461.47-1.92L461.47-1.92Q459.97-3.58 459.30-6.21L459.30-6.21L459.30-6.21Q458.62-8.83 458.62-13.12L458.62-13.12L458.62-13.12Q458.62-17.41 460.10-21.31L460.10-21.31L460.10-21.31Q461.57-25.22 464.26-28.03L464.26-28.03L464.26-28.03Q469.76-33.92 478.85-33.92L478.85-33.92L478.85-33.92Q482.11-33.92 484.48-32.83L484.48-32.83L495.42-33.92L490.69-8.96L490.69-8.96Q490.50-8.19 490.50-6.78L490.50-6.78L490.50-6.78Q490.50-5.38 491.36-4.48L491.36-4.48L491.36-4.48Q492.22-3.58 493.50-3.46L493.50-3.46L493.50-3.46Q492.86-1.28 490.53 0L490.53 0L490.53 0Q488.19 1.28 485.57 1.28L485.57 1.28L485.57 1.28Q482.94 1.28 481.18 0.29L481.18 0.29L481.18 0.29Q479.42-0.70 478.91-2.37L478.91-2.37L478.91-2.37Q477.89-0.77 475.71 0.26L475.71 0.26L475.71 0.26Q473.54 1.28 470.62 1.28L470.62 1.28L470.62 1.28Q467.71 1.28 465.34 0.51L465.34 0.51L465.34 0.51Q462.98-0.26 461.47-1.92ZM474.98-27.90L474.98-27.90L474.98-27.90Q474.24-26.75 473.60-24.80L473.60-24.80L473.60-24.80Q472.96-22.85 471.90-17.63L471.90-17.63L471.90-17.63Q470.85-12.42 470.85-8.70L470.85-8.70L470.85-8.70Q470.85-4.99 471.42-3.90L471.42-3.90L471.42-3.90Q472-2.82 473.02-2.82L473.02-2.82L473.02-2.82Q475.07-2.82 476.58-4.77L476.58-4.77L476.58-4.77Q478.08-6.72 478.66-10.18L478.66-10.18L482.05-28.93L482.05-28.93Q480.70-30.08 479.14-30.08L479.14-30.08L479.14-30.08Q477.57-30.08 476.64-29.57L476.64-29.57L476.64-29.57Q475.71-29.06 474.98-27.90ZM544.96 1.28L544.96 1.28L544.96 1.28Q537.22 1.28 537.22-4.74L537.22-4.74L537.22-4.74Q537.22-7.36 538.34-12.45L538.34-12.45L538.34-12.45Q539.46-17.54 539.84-19.58L539.84-19.58L539.84-19.58Q540.74-24.26 540.74-25.73L540.74-25.73L540.74-25.73Q540.74-28.99 538.30-28.99L538.30-28.99L538.30-28.99Q536.70-28.99 535.17-26.78L535.17-26.78L535.17-26.78Q533.63-24.58 532.93-20.16L532.93-20.16L528.96 0L516.48 1.28L519.94-16.13L519.94-16.13Q520.51-19.01 521.02-22.27L521.02-22.27L521.02-22.27Q521.54-25.54 521.54-26.05L521.54-26.05L521.54-26.05Q521.54-28.99 519.36-28.99L519.36-28.99L519.36-28.99Q517.89-28.99 516.29-26.82L516.29-26.82L516.29-26.82Q514.69-24.64 513.79-20.16L513.79-20.16L509.89 0L497.28 1.28L504.00-32.64L514.43-33.92L513.34-27.46L513.34-27.46Q515.01-30.91 518.08-32.42L518.08-32.42L518.08-32.42Q521.15-33.92 525.95-33.92L525.95-33.92L525.95-33.92Q528.70-33.92 530.50-32.58L530.50-32.58L530.50-32.58Q532.29-31.23 532.86-29.06L532.86-29.06L532.86-29.06Q533.95-31.30 536.74-32.61L536.74-32.61L536.74-32.61Q539.52-33.92 542.94-33.92L542.94-33.92L542.94-33.92Q546.37-33.92 548.06-33.18L548.06-33.18L548.06-33.18Q549.76-32.45 550.78-31.23L550.78-31.23L550.78-31.23Q552.51-28.99 552.51-24.90L552.51-24.90L552.51-24.90Q552.51-20.86 550.78-12.48L550.78-12.48L550.78-12.48Q549.89-8.38 549.89-6.88L549.89-6.88L549.89-6.88Q549.89-5.38 550.75-4.48L550.75-4.48L550.75-4.48Q551.62-3.58 552.90-3.46L552.90-3.46L552.90-3.46Q552.26-1.28 550.05 0L550.05 0L550.05 0Q547.84 1.28 544.96 1.28ZM570.37-0.32L570.37-0.32L578.43-42.24L578.43-42.24Q585.98-42.88 590.85-42.88L590.85-42.88L590.85-42.88Q595.71-42.88 598.85-42.46L598.85-42.46L598.85-42.46Q601.98-42.05 604.10-40.96L604.10-40.96L604.10-40.96Q608.32-38.91 608.32-33.28L608.32-33.28L608.32-33.28Q608.32-30.02 605.50-27.26L605.50-27.26L605.50-27.26Q602.88-24.77 600-24.19L600-24.19L600-24.19Q603.07-23.68 605.25-21.38L605.25-21.38L605.25-21.38Q607.55-18.94 607.55-15.17L607.55-15.17L607.55-15.17Q607.55-7.87 602.11-3.62L602.11-3.62L602.11-3.62Q596.67 0.64 585.98 0.64L585.98 0.64L585.98 0.64Q578.62 0.64 570.37-0.32ZM587.78-20.61L584.58-4.03L584.58-4.03Q585.15-3.97 585.28-3.97L585.28-3.97L585.86-3.97L585.86-3.97Q591.10-3.97 593.34-7.42L593.34-7.42L593.34-7.42Q595.01-10.11 595.01-15.04L595.01-15.04L595.01-15.04Q595.01-17.66 593.31-19.07L593.31-19.07L593.31-19.07Q591.62-20.48 587.78-20.61L587.78-20.61ZM597.50-33.22L597.50-33.22L597.50-33.22Q597.50-38.53 592.38-38.53L592.38-38.53L591.81-38.53L591.81-38.53Q591.55-38.53 591.17-38.46L591.17-38.46L588.61-24.96L589.25-24.96L589.25-24.96Q597.50-25.15 597.50-33.22ZM614.56-1.92L614.56-1.92L614.56-1.92Q613.06-3.58 612.38-6.21L612.38-6.21L612.38-6.21Q611.71-8.83 611.71-13.12L611.71-13.12L611.71-13.12Q611.71-17.41 613.18-21.31L613.18-21.31L613.18-21.31Q614.66-25.22 617.34-28.03L617.34-28.03L617.34-28.03Q622.85-33.92 631.94-33.92L631.94-33.92L631.94-33.92Q635.20-33.92 637.57-32.83L637.57-32.83L648.51-33.92L643.78-8.96L643.78-8.96Q643.58-8.19 643.58-6.78L643.58-6.78L643.58-6.78Q643.58-5.38 644.45-4.48L644.45-4.48L644.45-4.48Q645.31-3.58 646.59-3.46L646.59-3.46L646.59-3.46Q645.95-1.28 643.62 0L643.62 0L643.62 0Q641.28 1.28 638.66 1.28L638.66 1.28L638.66 1.28Q636.03 1.28 634.27 0.29L634.27 0.29L634.27 0.29Q632.51-0.70 632-2.37L632-2.37L632-2.37Q630.98-0.77 628.80 0.26L628.80 0.26L628.80 0.26Q626.62 1.28 623.71 1.28L623.71 1.28L623.71 1.28Q620.80 1.28 618.43 0.51L618.43 0.51L618.43 0.51Q616.06-0.26 614.56-1.92ZM628.06-27.90L628.06-27.90L628.06-27.90Q627.33-26.75 626.69-24.80L626.69-24.80L626.69-24.80Q626.05-22.85 624.99-17.63L624.99-17.63L624.99-17.63Q623.94-12.42 623.94-8.70L623.94-8.70L623.94-8.70Q623.94-4.99 624.51-3.90L624.51-3.90L624.51-3.90Q625.09-2.82 626.11-2.82L626.11-2.82L626.11-2.82Q628.16-2.82 629.66-4.77L629.66-4.77L629.66-4.77Q631.17-6.72 631.74-10.18L631.74-10.18L635.14-28.93L635.14-28.93Q633.79-30.08 632.22-30.08L632.22-30.08L632.22-30.08Q630.66-30.08 629.73-29.57L629.73-29.57L629.73-29.57Q628.80-29.06 628.06-27.90ZM699.71-10.69L699.71-10.69Q695.49-4.86 691.42-1.79L691.42-1.79L691.42-1.79Q687.36 1.28 683.17 1.28L683.17 1.28L683.17 1.28Q678.98 1.28 677.50 0.45L677.50 0.45L677.50-13.63L677.50-13.63Q673.86-3.90 667.33-0.13L667.33-0.13L667.33-0.13Q664.96 1.28 662.72 1.28L662.72 1.28L662.72 1.28Q658.43 1.28 656.58 0.45L656.58 0.45L656.58 0.45Q656.13-14.21 655.74-18.27L655.74-18.27L655.74-18.27Q655.36-22.34 655.04-24.83L655.04-24.83L655.04-24.83Q654.40-29.82 652.22-31.87L652.22-31.87L652.22-31.87Q654.98-33.92 658.82-33.92L658.82-33.92L658.82-33.92Q666.24-33.92 667.26-24.70L667.26-24.70L667.26-24.70Q667.52-22.53 667.52-20.22L667.52-20.22L667.52-20.22Q667.52-16.77 666.75-4.74L666.75-4.74L666.75-4.74Q668.29-5.44 669.92-7.97L669.92-7.97L669.92-7.97Q671.55-10.50 672.90-13.95L672.90-13.95L672.90-13.95Q675.90-21.95 675.90-28.86L675.90-28.86L675.90-28.86Q675.90-29.95 675.62-31.10L675.62-31.10L675.62-31.10Q675.33-32.26 675.01-32.58L675.01-32.58L675.01-32.58Q677.25-33.92 680.67-33.92L680.67-33.92L680.67-33.92Q684.10-33.92 685.73-31.58L685.73-31.58L685.73-31.58Q687.36-29.25 687.81-24.96L687.81-24.96L687.81-24.96Q688.32-19.52 688.32-16.26L688.32-16.26L688.32-16.26Q688.32-11.71 687.87-4.99L687.87-4.99L687.87-4.99Q691.07-7.30 693.70-14.85L693.70-14.85L693.70-14.85Q696.32-22.40 696.32-27.78L696.32-27.78L696.32-27.78Q696.32-30.14 695.94-31.55L695.94-31.55L695.94-31.55Q698.05-33.92 701.70-33.92L701.70-33.92L701.70-33.92Q703.94-33.92 705.57-32.70L705.57-32.70L705.57-32.70Q707.20-31.49 707.20-29.22L707.20-29.22L707.20-29.22Q707.20-26.94 706.53-24.51L706.53-24.51L706.53-24.51Q705.86-22.08 704.77-19.58L704.77-19.58L704.77-19.58Q702.66-14.59 699.71-10.69L699.71-10.69ZM711.71-1.92L711.71-1.92L711.71-1.92Q710.21-3.58 709.54-6.21L709.54-6.21L709.54-6.21Q708.86-8.83 708.86-13.12L708.86-13.12L708.86-13.12Q708.86-17.41 710.34-21.31L710.34-21.31L710.34-21.31Q711.81-25.22 714.50-28.03L714.50-28.03L714.50-28.03Q720-33.92 729.09-33.92L729.09-33.92L729.09-33.92Q732.35-33.92 734.72-32.83L734.72-32.83L745.66-33.92L740.93-8.96L740.93-8.96Q740.74-8.19 740.74-6.78L740.74-6.78L740.74-6.78Q740.74-5.38 741.60-4.48L741.60-4.48L741.60-4.48Q742.46-3.58 743.74-3.46L743.74-3.46L743.74-3.46Q743.10-1.28 740.77 0L740.77 0L740.77 0Q738.43 1.28 735.81 1.28L735.81 1.28L735.81 1.28Q733.18 1.28 731.42 0.29L731.42 0.29L731.42 0.29Q729.66-0.70 729.15-2.37L729.15-2.37L729.15-2.37Q728.13-0.77 725.95 0.26L725.95 0.26L725.95 0.26Q723.78 1.28 720.86 1.28L720.86 1.28L720.86 1.28Q717.95 1.28 715.58 0.51L715.58 0.51L715.58 0.51Q713.22-0.26 711.71-1.92ZM725.22-27.90L725.22-27.90L725.22-27.90Q724.48-26.75 723.84-24.80L723.84-24.80L723.84-24.80Q723.20-22.85 722.14-17.63L722.14-17.63L722.14-17.63Q721.09-12.42 721.09-8.70L721.09-8.70L721.09-8.70Q721.09-4.99 721.66-3.90L721.66-3.90L721.66-3.90Q722.24-2.82 723.26-2.82L723.26-2.82L723.26-2.82Q725.31-2.82 726.82-4.77L726.82-4.77L726.82-4.77Q728.32-6.72 728.90-10.18L728.90-10.18L732.29-28.93L732.29-28.93Q730.94-30.08 729.38-30.08L729.38-30.08L729.38-30.08Q727.81-30.08 726.88-29.57L726.88-29.57L726.88-29.57Q725.95-29.06 725.22-27.90ZM776.19 1.28L776.19 1.28L776.19 1.28Q768.45 1.28 768.45-4.74L768.45-4.74L768.45-4.74Q768.51-6.40 769.02-9.22L769.02-9.22L770.18-15.10L770.18-15.10Q771.90-23.42 771.90-25.28L771.90-25.28L771.90-25.28Q771.90-28.99 769.73-28.99L769.73-28.99L769.73-28.99Q766.08-28.99 764.16-19.46L764.16-19.46L760.38 0L747.52 1.28L754.18-32.70L764.67-33.92L763.65-27.65L763.65-27.65Q766.66-33.92 775.87-33.92L775.87-33.92L775.87-33.92Q780.35-33.92 782.24-32.03L782.24-32.03L782.24-32.03Q784.13-30.14 784.13-25.92L784.13-25.92L784.13-25.92Q784.13-21.95 782.08-12.67L782.08-12.67L782.08-12.67Q781.12-8.51 781.12-6.94L781.12-6.94L781.12-6.94Q781.12-5.38 781.98-4.48L781.98-4.48L781.98-4.48Q782.85-3.58 784.13-3.46L784.13-3.46L784.13-3.46Q783.49-1.28 781.28 0L781.28 0L781.28 0Q779.07 1.28 776.19 1.28ZM805.76-30.34L805.76-30.34L805.76-30.34Q809.22-33.92 816.51-33.92L816.51-33.92L816.51-33.92Q820.54-33.92 822.75-31.78L822.75-31.78L822.75-31.78Q824.96-29.63 824.96-25.70L824.96-25.70L824.96-25.70Q824.96-21.76 822.75-18.98L822.75-18.98L822.75-18.98Q820.54-16.19 816.45-15.04L816.45-15.04L816.45-15.04Q816.77-13.76 817.22-12.42L817.22-12.42L818.11-9.86L818.11-9.86Q819.33-6.59 820.29-5.44L820.29-5.44L820.29-5.44Q821.25-4.29 822.53-3.90L822.53-3.90L822.53-3.90Q821.82-1.28 819.26 0.13L819.26 0.13L819.26 0.13Q817.22 1.28 814.40 1.28L814.40 1.28L814.40 1.28Q806.14 1.28 805.06-11.46L805.06-11.46L805.06-11.46Q804.86-13.25 804.86-15.04L804.86-15.04L804.86-15.04Q808.06-15.94 810.30-18.94L810.30-18.94L810.30-18.94Q812.54-21.95 812.54-25.47L812.54-25.47L812.54-25.47Q812.54-28.99 810.05-28.99L810.05-28.99L810.05-28.99Q808.26-28.99 806.85-27.01L806.85-27.01L806.85-27.01Q805.44-25.02 804.80-21.63L804.80-21.63L800.58 0L787.65 1.28L796.61-44.80L809.47-46.08L808.00-38.46L808.00-38.46Q807.04-33.09 805.76-30.34ZM830.69-1.92L830.69-1.92L830.69-1.92Q829.18-3.58 828.51-6.21L828.51-6.21L828.51-6.21Q827.84-8.83 827.84-13.12L827.84-13.12L827.84-13.12Q827.84-17.41 829.31-21.31L829.31-21.31L829.31-21.31Q830.78-25.22 833.47-28.03L833.47-28.03L833.47-28.03Q838.98-33.92 848.06-33.92L848.06-33.92L848.06-33.92Q851.33-33.92 853.70-32.83L853.70-32.83L864.64-33.92L859.90-8.96L859.90-8.96Q859.71-8.19 859.71-6.78L859.71-6.78L859.71-6.78Q859.71-5.38 860.58-4.48L860.58-4.48L860.58-4.48Q861.44-3.58 862.72-3.46L862.72-3.46L862.72-3.46Q862.08-1.28 859.74 0L859.74 0L859.74 0Q857.41 1.28 854.78 1.28L854.78 1.28L854.78 1.28Q852.16 1.28 850.40 0.29L850.40 0.29L850.40 0.29Q848.64-0.70 848.13-2.37L848.13-2.37L848.13-2.37Q847.10-0.77 844.93 0.26L844.93 0.26L844.93 0.26Q842.75 1.28 839.84 1.28L839.84 1.28L839.84 1.28Q836.93 1.28 834.56 0.51L834.56 0.51L834.56 0.51Q832.19-0.26 830.69-1.92ZM844.19-27.90L844.19-27.90L844.19-27.90Q843.46-26.75 842.82-24.80L842.82-24.80L842.82-24.80Q842.18-22.85 841.12-17.63L841.12-17.63L841.12-17.63Q840.06-12.42 840.06-8.70L840.06-8.70L840.06-8.70Q840.06-4.99 840.64-3.90L840.64-3.90L840.64-3.90Q841.22-2.82 842.24-2.82L842.24-2.82L842.24-2.82Q844.29-2.82 845.79-4.77L845.79-4.77L845.79-4.77Q847.30-6.72 847.87-10.18L847.87-10.18L851.26-28.93L851.26-28.93Q849.92-30.08 848.35-30.08L848.35-30.08L848.35-30.08Q846.78-30.08 845.86-29.57L845.86-29.57L845.86-29.57Q844.93-29.06 844.19-27.90ZM888.13-17.98L888.13-17.98L888.13-17.98Q890.43-22.08 890.43-26.24L890.43-26.24L890.43-26.24Q890.43-28.99 888.45-28.99L888.45-28.99L888.45-28.99Q886.91-28.99 885.31-26.37L885.31-26.37L885.31-26.37Q883.65-23.74 883.14-20.35L883.14-20.35L879.81 0L866.56 1.28L873.09-32.64L883.65-33.92L882.50-27.46L882.50-27.46Q885.63-33.92 892.67-33.92L892.67-33.92L892.67-33.92Q896.38-33.92 898.40-32L898.40-32L898.40-32Q900.42-30.08 900.42-26.14L900.42-26.14L900.42-26.14Q900.42-22.21 897.82-19.71L897.82-19.71L897.82-19.71Q895.23-17.22 890.82-17.22L890.82-17.22L890.82-17.22Q888.90-17.22 888.13-17.98Z" fill="url(#editing-gradient-gradient)"></path></g></g><style>text {
  font-size: 64px;
  font-family: Arial Black;
  dominant-baseline: central;
  text-anchor: middle;
}</style></svg>