<svg width="1188.030078125px" height="120.8px" xmlns="http://www.w3.org/2000/svg" viewBox="-344.0150390625 14.600000000000001 1188.030078125 120.8" style="background: rgba(0, 0, 0, 0);" preserveAspectRatio="xMidYMid"><defs><linearGradient id="editing-shiny-gradient" x1="0.04322727117869957" x2="0.9567727288213004" y1="0.2966316784620999" y2="0.7033683215379001" gradientUnits="objectBoundingBox"><stop offset="0.0" stop-color="#ffb200"></stop><stop offset="0.5" stop-color="#e10057"></stop><stop offset="1.0" stop-color="#5A1A80"></stop></linearGradient><linearGradient id="editing-shiny-gradient2" x1="0" x2="0" y1="0" y2="1"><stop offset="0.2" stop-color="#fff" stop-opacity="0.8"></stop><stop offset="0.8" stop-color="#fff" stop-opacity="0"></stop></linearGradient><filter id="editing-shiny2" x="-100%" y="-100%" width="300%" height="300%"><feMorphology operator="erode" radius="2"></feMorphology></filter><filter id="editing-shiny" x="-100%" y="-100%" width="300%" height="300%"><feFlood flood-color="#fff" result="flood"></feFlood><feConvolveMatrix in="SourceGraphic" result="conv" order="8,8" divisor="1" kernelMatrix="0 0 0 0 0 0 0 0 0 0 0 1 1 0 0 0 0 0 0 1 1 0 0 0 0 0 1 0 0 1 0 0 0 0 1 0 0 1 0 0 0 1 0 0 0 0 1 0 0 1 1 0 0 1 1 0 0 0 0 1 1 0 0 0 "></feConvolveMatrix><feOffset dx="0" dy="4" in="conv" result="offset"></feOffset><feComposite operator="in" in="flood" in2="offset" result="comp"></feComposite><feGaussianBlur in="offset" stdDeviation="3" result="shadow"></feGaussianBlur><feColorMatrix in="shadow" type="matrix" values="0.7 0 0 0 0  0 0.7 0 0 0  0 0 0.7 0 0  0 0 0 0.3 0" result="dark-shadow"></feColorMatrix><feOffset dx="0" dy="4" in="dark-shadow" result="offset-shadow"></feOffset><feOffset dx="0" dy="2" in="conv" result="offset-2"></feOffset><feComposite operator="out" in="offset" in2="offset-2" result="edge-diff"></feComposite><feGaussianBlur in="edge-diff" stdDeviation="1" result="edge-blur"></feGaussianBlur><feColorMatrix in="edge-blur" result="edge-shadow" type="matrix" values="0 0 0 0 0  0 0 0 0 0  0 0 0 0 0  0 0 0 0.5 0"></feColorMatrix><feComposite operator="in" in="edge-shadow" in2="offset" result="edge-shadow-in"></feComposite><feOffset dx="0" dy="1" in="edge-shadow-in" result="edge-shadow-final"></feOffset><feMerge result="out"><feMergeNode in="offset-shadow"></feMergeNode><feMergeNode in="comp"></feMergeNode><feMergeNode in="edge-shadow-final"></feMergeNode><feMergeNode in="SourceGraphic"></feMergeNode></feMerge></filter></defs><g filter="url(#editing-shiny)"><g transform="translate(-179.13659182190895, 99)"><path d="M24.96-4.80L24.96-4.80L24.96-4.80Q24.96-9.28 26.75-18.24L26.75-18.24L17.28-18.24L13.76 0L0.38 0L8.51-42.24L22.02-42.24L18.30-23.36L27.78-23.36L31.30-42.24L44.80-42.24L44.80-42.24Q43.90-37.50 42.75-32.19L42.75-32.19L40.58-21.76L40.58-21.76Q38.14-9.60 38.14-4.29L38.14-4.29L38.14-4.29Q38.14-2.11 38.85-0.90L38.85-0.90L38.85-0.90Q35.65 1.28 31.90 1.28L31.90 1.28L31.90 1.28Q28.16 1.28 26.56-0.51L26.56-0.51L26.56-0.51Q24.96-2.30 24.96-4.80ZM61.70-3.52L61.70-3.52L61.70-3.52Q59.71 1.28 53.38 1.28L53.38 1.28L53.38 1.28Q50.11 1.28 48.06-0.96L48.06-0.96L48.06-0.96Q46.34-2.94 46.34-4.93L46.34-4.93L46.34-4.93Q46.34-10.11 48.70-20.22L48.70-20.22L51.07-32.64L64.06-33.92L60.16-13.70L60.16-13.70Q59.07-8.96 59.07-7.30L59.07-7.30L59.07-7.30Q59.07-3.65 61.70-3.52ZM52.22-41.54L52.22-41.54L52.22-41.54Q52.22-44.03 54.30-45.38L54.30-45.38L54.30-45.38Q56.38-46.72 59.39-46.72L59.39-46.72L59.39-46.72Q62.40-46.72 64.22-45.38L64.22-45.38L64.22-45.38Q66.05-44.03 66.05-41.54L66.05-41.54L66.05-41.54Q66.05-39.04 64.03-37.76L64.03-37.76L64.03-37.76Q62.02-36.48 59.01-36.48L59.01-36.48L59.01-36.48Q56-36.48 54.11-37.76L54.11-37.76L54.11-37.76Q52.22-39.04 52.22-41.54ZM95.68-3.52L95.68-3.52L95.68-3.52Q93.70 1.28 87.36 1.28L87.36 1.28L87.36 1.28Q84.10 1.28 82.05-0.96L82.05-0.96L82.05-0.96Q80.32-2.94 80.32-4.93L80.32-4.93L80.32-4.93Q80.32-10.11 82.69-20.22L82.69-20.22L85.06-32.64L98.05-33.92L94.14-13.70L94.14-13.70Q93.06-8.96 93.06-7.30L93.06-7.30L93.06-7.30Q93.06-3.65 95.68-3.52ZM86.21-41.54L86.21-41.54L86.21-41.54Q86.21-44.03 88.29-45.38L88.29-45.38L88.29-45.38Q90.37-46.72 93.38-46.72L93.38-46.72L93.38-46.72Q96.38-46.72 98.21-45.38L98.21-45.38L98.21-45.38Q100.03-44.03 100.03-41.54L100.03-41.54L100.03-41.54Q100.03-39.04 98.02-37.76L98.02-37.76L98.02-37.76Q96-36.48 92.99-36.48L92.99-36.48L92.99-36.48Q89.98-36.48 88.10-37.76L88.10-37.76L88.10-37.76Q86.21-39.04 86.21-41.54ZM117.09-1.92L117.09-1.92L117.09-1.92Q115.58-3.58 114.91-6.21L114.91-6.21L114.91-6.21Q114.24-8.83 114.24-13.12L114.24-13.12L114.24-13.12Q114.24-17.41 115.71-21.31L115.71-21.31L115.71-21.31Q117.18-25.22 119.87-28.03L119.87-28.03L119.87-28.03Q125.38-33.92 134.46-33.92L134.46-33.92L134.46-33.92Q137.73-33.92 140.10-32.83L140.10-32.83L151.04-33.92L146.30-8.96L146.30-8.96Q146.11-8.19 146.11-6.78L146.11-6.78L146.11-6.78Q146.11-5.38 146.98-4.48L146.98-4.48L146.98-4.48Q147.84-3.58 149.12-3.46L149.12-3.46L149.12-3.46Q148.48-1.28 146.14 0L146.14 0L146.14 0Q143.81 1.28 141.18 1.28L141.18 1.28L141.18 1.28Q138.56 1.28 136.80 0.29L136.80 0.29L136.80 0.29Q135.04-0.70 134.53-2.37L134.53-2.37L134.53-2.37Q133.50-0.77 131.33 0.26L131.33 0.26L131.33 0.26Q129.15 1.28 126.24 1.28L126.24 1.28L126.24 1.28Q123.33 1.28 120.96 0.51L120.96 0.51L120.96 0.51Q118.59-0.26 117.09-1.92ZM130.59-27.90L130.59-27.90L130.59-27.90Q129.86-26.75 129.22-24.80L129.22-24.80L129.22-24.80Q128.58-22.85 127.52-17.63L127.52-17.63L127.52-17.63Q126.46-12.42 126.46-8.70L126.46-8.70L126.46-8.70Q126.46-4.99 127.04-3.90L127.04-3.90L127.04-3.90Q127.62-2.82 128.64-2.82L128.64-2.82L128.64-2.82Q130.69-2.82 132.19-4.77L132.19-4.77L132.19-4.77Q133.70-6.72 134.27-10.18L134.27-10.18L137.66-28.93L137.66-28.93Q136.32-30.08 134.75-30.08L134.75-30.08L134.75-30.08Q133.18-30.08 132.26-29.57L132.26-29.57L132.26-29.57Q131.33-29.06 130.59-27.90ZM200.58 1.28L200.58 1.28L200.58 1.28Q192.83 1.28 192.83-4.74L192.83-4.74L192.83-4.74Q192.83-7.36 193.95-12.45L193.95-12.45L193.95-12.45Q195.07-17.54 195.46-19.58L195.46-19.58L195.46-19.58Q196.35-24.26 196.35-25.73L196.35-25.73L196.35-25.73Q196.35-28.99 193.92-28.99L193.92-28.99L193.92-28.99Q192.32-28.99 190.78-26.78L190.78-26.78L190.78-26.78Q189.25-24.58 188.54-20.16L188.54-20.16L184.58 0L172.10 1.28L175.55-16.13L175.55-16.13Q176.13-19.01 176.64-22.27L176.64-22.27L176.64-22.27Q177.15-25.54 177.15-26.05L177.15-26.05L177.15-26.05Q177.15-28.99 174.98-28.99L174.98-28.99L174.98-28.99Q173.50-28.99 171.90-26.82L171.90-26.82L171.90-26.82Q170.30-24.64 169.41-20.16L169.41-20.16L165.50 0L152.90 1.28L159.62-32.64L170.05-33.92L168.96-27.46L168.96-27.46Q170.62-30.91 173.70-32.42L173.70-32.42L173.70-32.42Q176.77-33.92 181.57-33.92L181.57-33.92L181.57-33.92Q184.32-33.92 186.11-32.58L186.11-32.58L186.11-32.58Q187.90-31.23 188.48-29.06L188.48-29.06L188.48-29.06Q189.57-31.30 192.35-32.61L192.35-32.61L192.35-32.61Q195.14-33.92 198.56-33.92L198.56-33.92L198.56-33.92Q201.98-33.92 203.68-33.18L203.68-33.18L203.68-33.18Q205.38-32.45 206.40-31.23L206.40-31.23L206.40-31.23Q208.13-28.99 208.13-24.90L208.13-24.90L208.13-24.90Q208.13-20.86 206.40-12.48L206.40-12.48L206.40-12.48Q205.50-8.38 205.50-6.88L205.50-6.88L205.50-6.88Q205.50-5.38 206.37-4.48L206.37-4.48L206.37-4.48Q207.23-3.58 208.51-3.46L208.51-3.46L208.51-3.46Q207.87-1.28 205.66 0L205.66 0L205.66 0Q203.46 1.28 200.58 1.28ZM245.76-22.46L245.76-22.46L245.76-22.46Q246.66-24.83 246.66-26.88L246.66-26.88L246.66-26.88Q246.66-30.66 243.58-30.66L243.58-30.66L243.58-30.66Q241.98-30.66 240.67-29.22L240.67-29.22L240.67-29.22Q239.36-27.78 239.36-25.98L239.36-25.98L239.36-25.98Q239.36-24.70 240.38-23.68L240.38-23.68L240.38-23.68Q241.86-22.27 245.63-19.97L245.63-19.97L245.63-19.97Q249.41-17.66 250.85-15.78L250.85-15.78L250.85-15.78Q252.29-13.89 252.29-11.30L252.29-11.30L252.29-11.30Q252.29-8.70 251.04-6.34L251.04-6.34L251.04-6.34Q249.79-3.97 247.55-2.30L247.55-2.30L247.55-2.30Q242.75 1.28 235.07 1.28L235.07 1.28L235.07 1.28Q230.91 1.28 227.71-0.90L227.71-0.90L227.71-0.90Q224.51-3.01 224.51-5.50L224.51-5.50L224.51-5.50Q224.51-8 226.34-9.47L226.34-9.47L226.34-9.47Q228.16-10.94 230.85-10.94L230.85-10.94L230.85-10.94Q233.54-10.94 235.20-9.92L235.20-9.92L235.20-9.92Q234.37-7.81 234.37-6.40L234.37-6.40L234.37-6.40Q234.37-2.18 237.95-2.18L237.95-2.18L237.95-2.18Q239.49-2.18 240.51-3.14L240.51-3.14L240.51-3.14Q241.54-4.10 241.54-5.76L241.54-5.76L241.54-5.76Q241.54-9.02 236.03-12.48L236.03-12.48L236.03-12.48Q231.55-15.42 230.53-16.58L230.53-16.58L230.53-16.58Q228.80-18.62 228.80-21.18L228.80-21.18L228.80-21.18Q228.80-23.74 230.02-26.18L230.02-26.18L230.02-26.18Q231.23-28.61 233.47-30.34L233.47-30.34L233.47-30.34Q238.14-33.92 246.27-33.92L246.27-33.92L246.27-33.92Q250.43-33.92 252.90-32.26L252.90-32.26L252.90-32.26Q255.36-30.59 255.36-27.78L255.36-27.78L255.36-27.78Q255.36-24.96 253.66-23.36L253.66-23.36L253.66-23.36Q251.97-21.76 248.90-21.76L248.90-21.76L248.90-21.76Q246.78-21.76 245.76-22.46ZM289.92-7.10L289.92-7.10L289.92-7.10Q289.92-4.29 292.80-3.46L292.80-3.46L292.80-3.46Q292.10-1.09 289.34 0.19L289.34 0.19L289.34 0.19Q287.04 1.28 284.51 1.28L284.51 1.28L284.51 1.28Q281.98 1.28 280.67 0.61L280.67 0.61L280.67 0.61Q279.36-0.06 278.66-1.15L278.66-1.15L278.66-1.15Q277.50-2.82 277.50-5.95L277.50-5.95L277.50-5.95Q277.50-7.81 278.53-12.93L278.53-12.93L279.42-17.79L279.42-17.79Q280.51-23.36 280.51-25.41L280.51-25.41L280.51-25.41Q280.51-28.99 278.53-28.99L278.53-28.99L278.53-28.99Q276.03-28.99 274.43-25.34L274.43-25.34L274.43-25.34Q273.79-23.94 273.34-21.82L273.34-21.82L268.99 0L256.13 1.28L265.15-44.80L278.02-46.08L277.50-43.52L277.50-43.52Q275.71-33.66 274.18-30.34L274.18-30.34L274.18-30.34Q277.76-33.92 284.35-33.92L284.35-33.92L284.35-33.92Q291.33-33.92 292.61-29.31L292.61-29.31L292.61-29.31Q293.06-27.84 293.06-26.56L293.06-26.56L293.06-26.56Q293.06-25.28 292.96-24.29L292.96-24.29L292.96-24.29Q292.86-23.30 292.54-21.50L292.54-21.50L291.71-16.90L290.24-9.66L290.24-9.66Q289.92-8.19 289.92-7.10ZM318.53-2.69L318.53-2.69L318.53-2.69Q315.46 1.28 307.84 1.28L307.84 1.28L307.84 1.28Q303.87 1.28 300.99-1.12L300.99-1.12L300.99-1.12Q298.11-3.52 298.11-6.98L298.11-6.98L298.11-6.98Q298.11-8.90 298.30-9.86L298.30-9.86L302.59-32.64L315.58-33.92L310.91-9.22L310.91-9.22Q310.66-7.81 310.66-6.98L310.66-6.98L310.66-6.98Q310.66-3.26 312.90-3.26L312.90-3.26L312.90-3.26Q315.39-3.26 317.18-6.66L317.18-6.66L317.18-6.66Q317.76-7.74 318.02-9.15L318.02-9.15L322.56-32.64L335.17-33.92L330.43-8.96L330.43-8.96Q330.24-8 330.24-6.98L330.24-6.98L330.24-6.98Q330.24-5.95 330.82-4.83L330.82-4.83L330.82-4.83Q331.39-3.71 333.25-3.46L333.25-3.46L333.25-3.46Q332.86-1.92 331.52-0.90L331.52-0.90L331.52-0.90Q328.70 1.28 325.66 1.28L325.66 1.28L325.66 1.28Q322.62 1.28 320.83 0.19L320.83 0.19L320.83 0.19Q319.04-0.90 318.53-2.69ZM337.79-3.07L337.79-3.07L345.73-44.80L358.72-46.08L356.74-36.29L356.74-36.29Q356.03-33.28 355.14-31.17L355.14-31.17L355.14-31.17Q356.54-32.96 359.62-33.66L359.62-33.66L359.62-33.66Q360.51-33.92 361.60-33.92L361.60-33.92L361.60-33.92Q367.55-33.92 370.82-30.30L370.82-30.30L370.82-30.30Q374.08-26.69 374.08-19.71L374.08-19.71L374.08-19.71Q374.08-10.62 368.90-4.93L368.90-4.93L368.90-4.93Q363.33 1.28 353.22 1.28L353.22 1.28L353.22 1.28Q346.24 1.28 340.99-1.02L340.99-1.02L340.99-1.02Q339.14-1.86 337.79-3.07ZM354.05-22.40L350.66-3.65L350.66-3.65Q352.00-2.50 353.66-2.50L353.66-2.50L353.66-2.50Q355.33-2.50 356.29-3.14L356.29-3.14L356.29-3.14Q357.25-3.78 357.95-5.06L357.95-5.06L357.95-5.06Q359.87-8.51 361.41-19.07L361.41-19.07L361.41-19.07Q361.86-22.08 361.86-25.09L361.86-25.09L361.86-25.09Q361.86-28.10 361.18-29.06L361.18-29.06L361.18-29.06Q360.51-30.02 359.23-30.02L359.23-30.02L359.23-30.02Q355.33-30.02 354.05-22.40L354.05-22.40ZM410.11-7.10L410.11-7.10L410.11-7.10Q410.11-4.29 412.99-3.46L412.99-3.46L412.99-3.46Q412.29-1.09 409.54 0.19L409.54 0.19L409.54 0.19Q407.23 1.28 404.70 1.28L404.70 1.28L404.70 1.28Q402.18 1.28 400.86 0.61L400.86 0.61L400.86 0.61Q399.55-0.06 398.85-1.15L398.85-1.15L398.85-1.15Q397.70-2.82 397.70-5.95L397.70-5.95L397.70-5.95Q397.70-7.81 398.72-12.93L398.72-12.93L399.62-17.79L399.62-17.79Q400.70-23.36 400.70-25.41L400.70-25.41L400.70-25.41Q400.70-28.99 398.72-28.99L398.72-28.99L398.72-28.99Q396.22-28.99 394.62-25.34L394.62-25.34L394.62-25.34Q393.98-23.94 393.54-21.82L393.54-21.82L389.18 0L376.32 1.28L385.34-44.80L398.21-46.08L397.70-43.52L397.70-43.52Q395.90-33.66 394.37-30.34L394.37-30.34L394.37-30.34Q397.95-33.92 404.54-33.92L404.54-33.92L404.54-33.92Q411.52-33.92 412.80-29.31L412.80-29.31L412.80-29.31Q413.25-27.84 413.25-26.56L413.25-26.56L413.25-26.56Q413.25-25.28 413.15-24.29L413.15-24.29L413.15-24.29Q413.06-23.30 412.74-21.50L412.74-21.50L411.90-16.90L410.43-9.66L410.43-9.66Q410.11-8.19 410.11-7.10ZM420.96-1.92L420.96-1.92L420.96-1.92Q419.46-3.58 418.78-6.21L418.78-6.21L418.78-6.21Q418.11-8.83 418.11-13.12L418.11-13.12L418.11-13.12Q418.11-17.41 419.58-21.31L419.58-21.31L419.58-21.31Q421.06-25.22 423.74-28.03L423.74-28.03L423.74-28.03Q429.25-33.92 438.34-33.92L438.34-33.92L438.34-33.92Q441.60-33.92 443.97-32.83L443.97-32.83L454.91-33.92L450.18-8.96L450.18-8.96Q449.98-8.19 449.98-6.78L449.98-6.78L449.98-6.78Q449.98-5.38 450.85-4.48L450.85-4.48L450.85-4.48Q451.71-3.58 452.99-3.46L452.99-3.46L452.99-3.46Q452.35-1.28 450.02 0L450.02 0L450.02 0Q447.68 1.28 445.06 1.28L445.06 1.28L445.06 1.28Q442.43 1.28 440.67 0.29L440.67 0.29L440.67 0.29Q438.91-0.70 438.40-2.37L438.40-2.37L438.40-2.37Q437.38-0.77 435.20 0.26L435.20 0.26L435.20 0.26Q433.02 1.28 430.11 1.28L430.11 1.28L430.11 1.28Q427.20 1.28 424.83 0.51L424.83 0.51L424.83 0.51Q422.46-0.26 420.96-1.92ZM434.46-27.90L434.46-27.90L434.46-27.90Q433.73-26.75 433.09-24.80L433.09-24.80L433.09-24.80Q432.45-22.85 431.39-17.63L431.39-17.63L431.39-17.63Q430.34-12.42 430.34-8.70L430.34-8.70L430.34-8.70Q430.34-4.99 430.91-3.90L430.91-3.90L430.91-3.90Q431.49-2.82 432.51-2.82L432.51-2.82L432.51-2.82Q434.56-2.82 436.06-4.77L436.06-4.77L436.06-4.77Q437.57-6.72 438.14-10.18L438.14-10.18L441.54-28.93L441.54-28.93Q440.19-30.08 438.62-30.08L438.62-30.08L438.62-30.08Q437.06-30.08 436.13-29.57L436.13-29.57L436.13-29.57Q435.20-29.06 434.46-27.90ZM504.45 1.28L504.45 1.28L504.45 1.28Q496.70 1.28 496.70-4.74L496.70-4.74L496.70-4.74Q496.70-7.36 497.82-12.45L497.82-12.45L497.82-12.45Q498.94-17.54 499.33-19.58L499.33-19.58L499.33-19.58Q500.22-24.26 500.22-25.73L500.22-25.73L500.22-25.73Q500.22-28.99 497.79-28.99L497.79-28.99L497.79-28.99Q496.19-28.99 494.66-26.78L494.66-26.78L494.66-26.78Q493.12-24.58 492.42-20.16L492.42-20.16L488.45 0L475.97 1.28L479.42-16.13L479.42-16.13Q480-19.01 480.51-22.27L480.51-22.27L480.51-22.27Q481.02-25.54 481.02-26.05L481.02-26.05L481.02-26.05Q481.02-28.99 478.85-28.99L478.85-28.99L478.85-28.99Q477.38-28.99 475.78-26.82L475.78-26.82L475.78-26.82Q474.18-24.64 473.28-20.16L473.28-20.16L469.38 0L456.77 1.28L463.49-32.64L473.92-33.92L472.83-27.46L472.83-27.46Q474.50-30.91 477.57-32.42L477.57-32.42L477.57-32.42Q480.64-33.92 485.44-33.92L485.44-33.92L485.44-33.92Q488.19-33.92 489.98-32.58L489.98-32.58L489.98-32.58Q491.78-31.23 492.35-29.06L492.35-29.06L492.35-29.06Q493.44-31.30 496.22-32.61L496.22-32.61L496.22-32.61Q499.01-33.92 502.43-33.92L502.43-33.92L502.43-33.92Q505.86-33.92 507.55-33.18L507.55-33.18L507.55-33.18Q509.25-32.45 510.27-31.23L510.27-31.23L510.27-31.23Q512-28.99 512-24.90L512-24.90L512-24.90Q512-20.86 510.27-12.48L510.27-12.48L510.27-12.48Q509.38-8.38 509.38-6.88L509.38-6.88L509.38-6.88Q509.38-5.38 510.24-4.48L510.24-4.48L510.24-4.48Q511.10-3.58 512.38-3.46L512.38-3.46L512.38-3.46Q511.74-1.28 509.54 0L509.54 0L509.54 0Q507.33 1.28 504.45 1.28ZM529.66-3.07L529.66-3.07L537.60-44.80L550.59-46.08L548.61-36.29L548.61-36.29Q547.90-33.28 547.01-31.17L547.01-31.17L547.01-31.17Q548.42-32.96 551.49-33.66L551.49-33.66L551.49-33.66Q552.38-33.92 553.47-33.92L553.47-33.92L553.47-33.92Q559.42-33.92 562.69-30.30L562.69-30.30L562.69-30.30Q565.95-26.69 565.95-19.71L565.95-19.71L565.95-19.71Q565.95-10.62 560.77-4.93L560.77-4.93L560.77-4.93Q555.20 1.28 545.09 1.28L545.09 1.28L545.09 1.28Q538.11 1.28 532.86-1.02L532.86-1.02L532.86-1.02Q531.01-1.86 529.66-3.07ZM545.92-22.40L542.53-3.65L542.53-3.65Q543.87-2.50 545.54-2.50L545.54-2.50L545.54-2.50Q547.20-2.50 548.16-3.14L548.16-3.14L548.16-3.14Q549.12-3.78 549.82-5.06L549.82-5.06L549.82-5.06Q551.74-8.51 553.28-19.07L553.28-19.07L553.28-19.07Q553.73-22.08 553.73-25.09L553.73-25.09L553.73-25.09Q553.73-28.10 553.06-29.06L553.06-29.06L553.06-29.06Q552.38-30.02 551.10-30.02L551.10-30.02L551.10-30.02Q547.20-30.02 545.92-22.40L545.92-22.40ZM572.58-1.92L572.58-1.92L572.58-1.92Q571.07-3.58 570.40-6.21L570.40-6.21L570.40-6.21Q569.73-8.83 569.73-13.12L569.73-13.12L569.73-13.12Q569.73-17.41 571.20-21.31L571.20-21.31L571.20-21.31Q572.67-25.22 575.36-28.03L575.36-28.03L575.36-28.03Q580.86-33.92 589.95-33.92L589.95-33.92L589.95-33.92Q593.22-33.92 595.58-32.83L595.58-32.83L606.53-33.92L601.79-8.96L601.79-8.96Q601.60-8.19 601.60-6.78L601.60-6.78L601.60-6.78Q601.60-5.38 602.46-4.48L602.46-4.48L602.46-4.48Q603.33-3.58 604.61-3.46L604.61-3.46L604.61-3.46Q603.97-1.28 601.63 0L601.63 0L601.63 0Q599.30 1.28 596.67 1.28L596.67 1.28L596.67 1.28Q594.05 1.28 592.29 0.29L592.29 0.29L592.29 0.29Q590.53-0.70 590.02-2.37L590.02-2.37L590.02-2.37Q588.99-0.77 586.82 0.26L586.82 0.26L586.82 0.26Q584.64 1.28 581.73 1.28L581.73 1.28L581.73 1.28Q578.82 1.28 576.45 0.51L576.45 0.51L576.45 0.51Q574.08-0.26 572.58-1.92ZM586.08-27.90L586.08-27.90L586.08-27.90Q585.34-26.75 584.70-24.80L584.70-24.80L584.70-24.80Q584.06-22.85 583.01-17.63L583.01-17.63L583.01-17.63Q581.95-12.42 581.95-8.70L581.95-8.70L581.95-8.70Q581.95-4.99 582.53-3.90L582.53-3.90L582.53-3.90Q583.10-2.82 584.13-2.82L584.13-2.82L584.13-2.82Q586.18-2.82 587.68-4.77L587.68-4.77L587.68-4.77Q589.18-6.72 589.76-10.18L589.76-10.18L593.15-28.93L593.15-28.93Q591.81-30.08 590.24-30.08L590.24-30.08L590.24-30.08Q588.67-30.08 587.74-29.57L587.74-29.57L587.74-29.57Q586.82-29.06 586.08-27.90ZM657.73-10.69L657.73-10.69Q653.50-4.86 649.44-1.79L649.44-1.79L649.44-1.79Q645.38 1.28 641.18 1.28L641.18 1.28L641.18 1.28Q636.99 1.28 635.52 0.45L635.52 0.45L635.52-13.63L635.52-13.63Q631.87-3.90 625.34-0.13L625.34-0.13L625.34-0.13Q622.98 1.28 620.74 1.28L620.74 1.28L620.74 1.28Q616.45 1.28 614.59 0.45L614.59 0.45L614.59 0.45Q614.14-14.21 613.76-18.27L613.76-18.27L613.76-18.27Q613.38-22.34 613.06-24.83L613.06-24.83L613.06-24.83Q612.42-29.82 610.24-31.87L610.24-31.87L610.24-31.87Q612.99-33.92 616.83-33.92L616.83-33.92L616.83-33.92Q624.26-33.92 625.28-24.70L625.28-24.70L625.28-24.70Q625.54-22.53 625.54-20.22L625.54-20.22L625.54-20.22Q625.54-16.77 624.77-4.74L624.77-4.74L624.77-4.74Q626.30-5.44 627.94-7.97L627.94-7.97L627.94-7.97Q629.57-10.50 630.91-13.95L630.91-13.95L630.91-13.95Q633.92-21.95 633.92-28.86L633.92-28.86L633.92-28.86Q633.92-29.95 633.63-31.10L633.63-31.10L633.63-31.10Q633.34-32.26 633.02-32.58L633.02-32.58L633.02-32.58Q635.26-33.92 638.69-33.92L638.69-33.92L638.69-33.92Q642.11-33.92 643.74-31.58L643.74-31.58L643.74-31.58Q645.38-29.25 645.82-24.96L645.82-24.96L645.82-24.96Q646.34-19.52 646.34-16.26L646.34-16.26L646.34-16.26Q646.34-11.71 645.89-4.99L645.89-4.99L645.89-4.99Q649.09-7.30 651.71-14.85L651.71-14.85L651.71-14.85Q654.34-22.40 654.34-27.78L654.34-27.78L654.34-27.78Q654.34-30.14 653.95-31.55L653.95-31.55L653.95-31.55Q656.06-33.92 659.71-33.92L659.71-33.92L659.71-33.92Q661.95-33.92 663.58-32.70L663.58-32.70L663.58-32.70Q665.22-31.49 665.22-29.22L665.22-29.22L665.22-29.22Q665.22-26.94 664.54-24.51L664.54-24.51L664.54-24.51Q663.87-22.08 662.78-19.58L662.78-19.58L662.78-19.58Q660.67-14.59 657.73-10.69L657.73-10.69ZM669.73-1.92L669.73-1.92L669.73-1.92Q668.22-3.58 667.55-6.21L667.55-6.21L667.55-6.21Q666.88-8.83 666.88-13.12L666.88-13.12L666.88-13.12Q666.88-17.41 668.35-21.31L668.35-21.31L668.35-21.31Q669.82-25.22 672.51-28.03L672.51-28.03L672.51-28.03Q678.02-33.92 687.10-33.92L687.10-33.92L687.10-33.92Q690.37-33.92 692.74-32.83L692.74-32.83L703.68-33.92L698.94-8.96L698.94-8.96Q698.75-8.19 698.75-6.78L698.75-6.78L698.75-6.78Q698.75-5.38 699.62-4.48L699.62-4.48L699.62-4.48Q700.48-3.58 701.76-3.46L701.76-3.46L701.76-3.46Q701.12-1.28 698.78 0L698.78 0L698.78 0Q696.45 1.28 693.82 1.28L693.82 1.28L693.82 1.28Q691.20 1.28 689.44 0.29L689.44 0.29L689.44 0.29Q687.68-0.70 687.17-2.37L687.17-2.37L687.17-2.37Q686.14-0.77 683.97 0.26L683.97 0.26L683.97 0.26Q681.79 1.28 678.88 1.28L678.88 1.28L678.88 1.28Q675.97 1.28 673.60 0.51L673.60 0.51L673.60 0.51Q671.23-0.26 669.73-1.92ZM683.23-27.90L683.23-27.90L683.23-27.90Q682.50-26.75 681.86-24.80L681.86-24.80L681.86-24.80Q681.22-22.85 680.16-17.63L680.16-17.63L680.16-17.63Q679.10-12.42 679.10-8.70L679.10-8.70L679.10-8.70Q679.10-4.99 679.68-3.90L679.68-3.90L679.68-3.90Q680.26-2.82 681.28-2.82L681.28-2.82L681.28-2.82Q683.33-2.82 684.83-4.77L684.83-4.77L684.83-4.77Q686.34-6.72 686.91-10.18L686.91-10.18L690.30-28.93L690.30-28.93Q688.96-30.08 687.39-30.08L687.39-30.08L687.39-30.08Q685.82-30.08 684.90-29.57L684.90-29.57L684.90-29.57Q683.97-29.06 683.23-27.90ZM734.21 1.28L734.21 1.28L734.21 1.28Q726.46 1.28 726.46-4.74L726.46-4.74L726.46-4.74Q726.53-6.40 727.04-9.22L727.04-9.22L728.19-15.10L728.19-15.10Q729.92-23.42 729.92-25.28L729.92-25.28L729.92-25.28Q729.92-28.99 727.74-28.99L727.74-28.99L727.74-28.99Q724.10-28.99 722.18-19.46L722.18-19.46L718.40 0L705.54 1.28L712.19-32.70L722.69-33.92L721.66-27.65L721.66-27.65Q724.67-33.92 733.89-33.92L733.89-33.92L733.89-33.92Q738.37-33.92 740.26-32.03L740.26-32.03L740.26-32.03Q742.14-30.14 742.14-25.92L742.14-25.92L742.14-25.92Q742.14-21.95 740.10-12.67L740.10-12.67L740.10-12.67Q739.14-8.51 739.14-6.94L739.14-6.94L739.14-6.94Q739.14-5.38 740-4.48L740-4.48L740-4.48Q740.86-3.58 742.14-3.46L742.14-3.46L742.14-3.46Q741.50-1.28 739.30 0L739.30 0L739.30 0Q737.09 1.28 734.21 1.28ZM763.78-30.34L763.78-30.34L763.78-30.34Q767.23-33.92 774.53-33.92L774.53-33.92L774.53-33.92Q778.56-33.92 780.77-31.78L780.77-31.78L780.77-31.78Q782.98-29.63 782.98-25.70L782.98-25.70L782.98-25.70Q782.98-21.76 780.77-18.98L780.77-18.98L780.77-18.98Q778.56-16.19 774.46-15.04L774.46-15.04L774.46-15.04Q774.78-13.76 775.23-12.42L775.23-12.42L776.13-9.86L776.13-9.86Q777.34-6.59 778.30-5.44L778.30-5.44L778.30-5.44Q779.26-4.29 780.54-3.90L780.54-3.90L780.54-3.90Q779.84-1.28 777.28 0.13L777.28 0.13L777.28 0.13Q775.23 1.28 772.42 1.28L772.42 1.28L772.42 1.28Q764.16 1.28 763.07-11.46L763.07-11.46L763.07-11.46Q762.88-13.25 762.88-15.04L762.88-15.04L762.88-15.04Q766.08-15.94 768.32-18.94L768.32-18.94L768.32-18.94Q770.56-21.95 770.56-25.47L770.56-25.47L770.56-25.47Q770.56-28.99 768.06-28.99L768.06-28.99L768.06-28.99Q766.27-28.99 764.86-27.01L764.86-27.01L764.86-27.01Q763.46-25.02 762.82-21.63L762.82-21.63L758.59 0L745.66 1.28L754.62-44.80L767.49-46.08L766.02-38.46L766.02-38.46Q765.06-33.09 763.78-30.34ZM788.70-1.92L788.70-1.92L788.70-1.92Q787.20-3.58 786.53-6.21L786.53-6.21L786.53-6.21Q785.86-8.83 785.86-13.12L785.86-13.12L785.86-13.12Q785.86-17.41 787.33-21.31L787.33-21.31L787.33-21.31Q788.80-25.22 791.49-28.03L791.49-28.03L791.49-28.03Q796.99-33.92 806.08-33.92L806.08-33.92L806.08-33.92Q809.34-33.92 811.71-32.83L811.71-32.83L822.66-33.92L817.92-8.96L817.92-8.96Q817.73-8.19 817.73-6.78L817.73-6.78L817.73-6.78Q817.73-5.38 818.59-4.48L818.59-4.48L818.59-4.48Q819.46-3.58 820.74-3.46L820.74-3.46L820.74-3.46Q820.10-1.28 817.76 0L817.76 0L817.76 0Q815.42 1.28 812.80 1.28L812.80 1.28L812.80 1.28Q810.18 1.28 808.42 0.29L808.42 0.29L808.42 0.29Q806.66-0.70 806.14-2.37L806.14-2.37L806.14-2.37Q805.12-0.77 802.94 0.26L802.94 0.26L802.94 0.26Q800.77 1.28 797.86 1.28L797.86 1.28L797.86 1.28Q794.94 1.28 792.58 0.51L792.58 0.51L792.58 0.51Q790.21-0.26 788.70-1.92ZM802.21-27.90L802.21-27.90L802.21-27.90Q801.47-26.75 800.83-24.80L800.83-24.80L800.83-24.80Q800.19-22.85 799.14-17.63L799.14-17.63L799.14-17.63Q798.08-12.42 798.08-8.70L798.08-8.70L798.08-8.70Q798.08-4.99 798.66-3.90L798.66-3.90L798.66-3.90Q799.23-2.82 800.26-2.82L800.26-2.82L800.26-2.82Q802.30-2.82 803.81-4.77L803.81-4.77L803.81-4.77Q805.31-6.72 805.89-10.18L805.89-10.18L809.28-28.93L809.28-28.93Q807.94-30.08 806.37-30.08L806.37-30.08L806.37-30.08Q804.80-30.08 803.87-29.57L803.87-29.57L803.87-29.57Q802.94-29.06 802.21-27.90ZM846.14-17.98L846.14-17.98L846.14-17.98Q848.45-22.08 848.45-26.24L848.45-26.24L848.45-26.24Q848.45-28.99 846.46-28.99L846.46-28.99L846.46-28.99Q844.93-28.99 843.33-26.37L843.33-26.37L843.33-26.37Q841.66-23.74 841.15-20.35L841.15-20.35L837.82 0L824.58 1.28L831.10-32.64L841.66-33.92L840.51-27.46L840.51-27.46Q843.65-33.92 850.69-33.92L850.69-33.92L850.69-33.92Q854.40-33.92 856.42-32L856.42-32L856.42-32Q858.43-30.08 858.43-26.14L858.43-26.14L858.43-26.14Q858.43-22.21 855.84-19.71L855.84-19.71L855.84-19.71Q853.25-17.22 848.83-17.22L848.83-17.22L848.83-17.22Q846.91-17.22 846.14-17.98Z" fill="url(#editing-shiny-gradient)"></path></g></g><g filter="url(#editing-shiny2)"><g transform="translate(-178.8757885992527, 98.99999618530273)"><path d="M24.96-4.80L24.96-4.80L24.96-4.80Q24.96-9.28 26.75-18.24L26.75-18.24L17.28-18.24L13.76 0L0.38 0L8.51-42.24L22.02-42.24L18.30-23.36L27.78-23.36L31.30-42.24L44.80-42.24L44.80-42.24Q43.90-37.50 42.75-32.19L42.75-32.19L40.58-21.76L40.58-21.76Q38.14-9.60 38.14-4.29L38.14-4.29L38.14-4.29Q38.14-2.11 38.85-0.90L38.85-0.90L38.85-0.90Q35.65 1.28 31.90 1.28L31.90 1.28L31.90 1.28Q28.16 1.28 26.56-0.51L26.56-0.51L26.56-0.51Q24.96-2.30 24.96-4.80ZM61.70-3.52L61.70-3.52L61.70-3.52Q59.71 1.28 53.38 1.28L53.38 1.28L53.38 1.28Q50.11 1.28 48.06-0.96L48.06-0.96L48.06-0.96Q46.34-2.94 46.34-4.93L46.34-4.93L46.34-4.93Q46.34-10.11 48.70-20.22L48.70-20.22L51.07-32.64L64.06-33.92L60.16-13.70L60.16-13.70Q59.07-8.96 59.07-7.30L59.07-7.30L59.07-7.30Q59.07-3.65 61.70-3.52ZM52.22-41.54L52.22-41.54L52.22-41.54Q52.22-44.03 54.30-45.38L54.30-45.38L54.30-45.38Q56.38-46.72 59.39-46.72L59.39-46.72L59.39-46.72Q62.40-46.72 64.22-45.38L64.22-45.38L64.22-45.38Q66.05-44.03 66.05-41.54L66.05-41.54L66.05-41.54Q66.05-39.04 64.03-37.76L64.03-37.76L64.03-37.76Q62.02-36.48 59.01-36.48L59.01-36.48L59.01-36.48Q56-36.48 54.11-37.76L54.11-37.76L54.11-37.76Q52.22-39.04 52.22-41.54ZM95.68-3.52L95.68-3.52L95.68-3.52Q93.70 1.28 87.36 1.28L87.36 1.28L87.36 1.28Q84.10 1.28 82.05-0.96L82.05-0.96L82.05-0.96Q80.32-2.94 80.32-4.93L80.32-4.93L80.32-4.93Q80.32-10.11 82.69-20.22L82.69-20.22L85.06-32.64L98.05-33.92L94.14-13.70L94.14-13.70Q93.06-8.96 93.06-7.30L93.06-7.30L93.06-7.30Q93.06-3.65 95.68-3.52ZM86.21-41.54L86.21-41.54L86.21-41.54Q86.21-44.03 88.29-45.38L88.29-45.38L88.29-45.38Q90.37-46.72 93.38-46.72L93.38-46.72L93.38-46.72Q96.38-46.72 98.21-45.38L98.21-45.38L98.21-45.38Q100.03-44.03 100.03-41.54L100.03-41.54L100.03-41.54Q100.03-39.04 98.02-37.76L98.02-37.76L98.02-37.76Q96-36.48 92.99-36.48L92.99-36.48L92.99-36.48Q89.98-36.48 88.10-37.76L88.10-37.76L88.10-37.76Q86.21-39.04 86.21-41.54ZM117.09-1.92L117.09-1.92L117.09-1.92Q115.58-3.58 114.91-6.21L114.91-6.21L114.91-6.21Q114.24-8.83 114.24-13.12L114.24-13.12L114.24-13.12Q114.24-17.41 115.71-21.31L115.71-21.31L115.71-21.31Q117.18-25.22 119.87-28.03L119.87-28.03L119.87-28.03Q125.38-33.92 134.46-33.92L134.46-33.92L134.46-33.92Q137.73-33.92 140.10-32.83L140.10-32.83L151.04-33.92L146.30-8.96L146.30-8.96Q146.11-8.19 146.11-6.78L146.11-6.78L146.11-6.78Q146.11-5.38 146.98-4.48L146.98-4.48L146.98-4.48Q147.84-3.58 149.12-3.46L149.12-3.46L149.12-3.46Q148.48-1.28 146.14 0L146.14 0L146.14 0Q143.81 1.28 141.18 1.28L141.18 1.28L141.18 1.28Q138.56 1.28 136.80 0.29L136.80 0.29L136.80 0.29Q135.04-0.70 134.53-2.37L134.53-2.37L134.53-2.37Q133.50-0.77 131.33 0.26L131.33 0.26L131.33 0.26Q129.15 1.28 126.24 1.28L126.24 1.28L126.24 1.28Q123.33 1.28 120.96 0.51L120.96 0.51L120.96 0.51Q118.59-0.26 117.09-1.92ZM130.59-27.90L130.59-27.90L130.59-27.90Q129.86-26.75 129.22-24.80L129.22-24.80L129.22-24.80Q128.58-22.85 127.52-17.63L127.52-17.63L127.52-17.63Q126.46-12.42 126.46-8.70L126.46-8.70L126.46-8.70Q126.46-4.99 127.04-3.90L127.04-3.90L127.04-3.90Q127.62-2.82 128.64-2.82L128.64-2.82L128.64-2.82Q130.69-2.82 132.19-4.77L132.19-4.77L132.19-4.77Q133.70-6.72 134.27-10.18L134.27-10.18L137.66-28.93L137.66-28.93Q136.32-30.08 134.75-30.08L134.75-30.08L134.75-30.08Q133.18-30.08 132.26-29.57L132.26-29.57L132.26-29.57Q131.33-29.06 130.59-27.90ZM200.58 1.28L200.58 1.28L200.58 1.28Q192.83 1.28 192.83-4.74L192.83-4.74L192.83-4.74Q192.83-7.36 193.95-12.45L193.95-12.45L193.95-12.45Q195.07-17.54 195.46-19.58L195.46-19.58L195.46-19.58Q196.35-24.26 196.35-25.73L196.35-25.73L196.35-25.73Q196.35-28.99 193.92-28.99L193.92-28.99L193.92-28.99Q192.32-28.99 190.78-26.78L190.78-26.78L190.78-26.78Q189.25-24.58 188.54-20.16L188.54-20.16L184.58 0L172.10 1.28L175.55-16.13L175.55-16.13Q176.13-19.01 176.64-22.27L176.64-22.27L176.64-22.27Q177.15-25.54 177.15-26.05L177.15-26.05L177.15-26.05Q177.15-28.99 174.98-28.99L174.98-28.99L174.98-28.99Q173.50-28.99 171.90-26.82L171.90-26.82L171.90-26.82Q170.30-24.64 169.41-20.16L169.41-20.16L165.50 0L152.90 1.28L159.62-32.64L170.05-33.92L168.96-27.46L168.96-27.46Q170.62-30.91 173.70-32.42L173.70-32.42L173.70-32.42Q176.77-33.92 181.57-33.92L181.57-33.92L181.57-33.92Q184.32-33.92 186.11-32.58L186.11-32.58L186.11-32.58Q187.90-31.23 188.48-29.06L188.48-29.06L188.48-29.06Q189.57-31.30 192.35-32.61L192.35-32.61L192.35-32.61Q195.14-33.92 198.56-33.92L198.56-33.92L198.56-33.92Q201.98-33.92 203.68-33.18L203.68-33.18L203.68-33.18Q205.38-32.45 206.40-31.23L206.40-31.23L206.40-31.23Q208.13-28.99 208.13-24.90L208.13-24.90L208.13-24.90Q208.13-20.86 206.40-12.48L206.40-12.48L206.40-12.48Q205.50-8.38 205.50-6.88L205.50-6.88L205.50-6.88Q205.50-5.38 206.37-4.48L206.37-4.48L206.37-4.48Q207.23-3.58 208.51-3.46L208.51-3.46L208.51-3.46Q207.87-1.28 205.66 0L205.66 0L205.66 0Q203.46 1.28 200.58 1.28ZM245.76-22.46L245.76-22.46L245.76-22.46Q246.66-24.83 246.66-26.88L246.66-26.88L246.66-26.88Q246.66-30.66 243.58-30.66L243.58-30.66L243.58-30.66Q241.98-30.66 240.67-29.22L240.67-29.22L240.67-29.22Q239.36-27.78 239.36-25.98L239.36-25.98L239.36-25.98Q239.36-24.70 240.38-23.68L240.38-23.68L240.38-23.68Q241.86-22.27 245.63-19.97L245.63-19.97L245.63-19.97Q249.41-17.66 250.85-15.78L250.85-15.78L250.85-15.78Q252.29-13.89 252.29-11.30L252.29-11.30L252.29-11.30Q252.29-8.70 251.04-6.34L251.04-6.34L251.04-6.34Q249.79-3.97 247.55-2.30L247.55-2.30L247.55-2.30Q242.75 1.28 235.07 1.28L235.07 1.28L235.07 1.28Q230.91 1.28 227.71-0.90L227.71-0.90L227.71-0.90Q224.51-3.01 224.51-5.50L224.51-5.50L224.51-5.50Q224.51-8 226.34-9.47L226.34-9.47L226.34-9.47Q228.16-10.94 230.85-10.94L230.85-10.94L230.85-10.94Q233.54-10.94 235.20-9.92L235.20-9.92L235.20-9.92Q234.37-7.81 234.37-6.40L234.37-6.40L234.37-6.40Q234.37-2.18 237.95-2.18L237.95-2.18L237.95-2.18Q239.49-2.18 240.51-3.14L240.51-3.14L240.51-3.14Q241.54-4.10 241.54-5.76L241.54-5.76L241.54-5.76Q241.54-9.02 236.03-12.48L236.03-12.48L236.03-12.48Q231.55-15.42 230.53-16.58L230.53-16.58L230.53-16.58Q228.80-18.62 228.80-21.18L228.80-21.18L228.80-21.18Q228.80-23.74 230.02-26.18L230.02-26.18L230.02-26.18Q231.23-28.61 233.47-30.34L233.47-30.34L233.47-30.34Q238.14-33.92 246.27-33.92L246.27-33.92L246.27-33.92Q250.43-33.92 252.90-32.26L252.90-32.26L252.90-32.26Q255.36-30.59 255.36-27.78L255.36-27.78L255.36-27.78Q255.36-24.96 253.66-23.36L253.66-23.36L253.66-23.36Q251.97-21.76 248.90-21.76L248.90-21.76L248.90-21.76Q246.78-21.76 245.76-22.46ZM289.92-7.10L289.92-7.10L289.92-7.10Q289.92-4.29 292.80-3.46L292.80-3.46L292.80-3.46Q292.10-1.09 289.34 0.19L289.34 0.19L289.34 0.19Q287.04 1.28 284.51 1.28L284.51 1.28L284.51 1.28Q281.98 1.28 280.67 0.61L280.67 0.61L280.67 0.61Q279.36-0.06 278.66-1.15L278.66-1.15L278.66-1.15Q277.50-2.82 277.50-5.95L277.50-5.95L277.50-5.95Q277.50-7.81 278.53-12.93L278.53-12.93L279.42-17.79L279.42-17.79Q280.51-23.36 280.51-25.41L280.51-25.41L280.51-25.41Q280.51-28.99 278.53-28.99L278.53-28.99L278.53-28.99Q276.03-28.99 274.43-25.34L274.43-25.34L274.43-25.34Q273.79-23.94 273.34-21.82L273.34-21.82L268.99 0L256.13 1.28L265.15-44.80L278.02-46.08L277.50-43.52L277.50-43.52Q275.71-33.66 274.18-30.34L274.18-30.34L274.18-30.34Q277.76-33.92 284.35-33.92L284.35-33.92L284.35-33.92Q291.33-33.92 292.61-29.31L292.61-29.31L292.61-29.31Q293.06-27.84 293.06-26.56L293.06-26.56L293.06-26.56Q293.06-25.28 292.96-24.29L292.96-24.29L292.96-24.29Q292.86-23.30 292.54-21.50L292.54-21.50L291.71-16.90L290.24-9.66L290.24-9.66Q289.92-8.19 289.92-7.10ZM318.53-2.69L318.53-2.69L318.53-2.69Q315.46 1.28 307.84 1.28L307.84 1.28L307.84 1.28Q303.87 1.28 300.99-1.12L300.99-1.12L300.99-1.12Q298.11-3.52 298.11-6.98L298.11-6.98L298.11-6.98Q298.11-8.90 298.30-9.86L298.30-9.86L302.59-32.64L315.58-33.92L310.91-9.22L310.91-9.22Q310.66-7.81 310.66-6.98L310.66-6.98L310.66-6.98Q310.66-3.26 312.90-3.26L312.90-3.26L312.90-3.26Q315.39-3.26 317.18-6.66L317.18-6.66L317.18-6.66Q317.76-7.74 318.02-9.15L318.02-9.15L322.56-32.64L335.17-33.92L330.43-8.96L330.43-8.96Q330.24-8 330.24-6.98L330.24-6.98L330.24-6.98Q330.24-5.95 330.82-4.83L330.82-4.83L330.82-4.83Q331.39-3.71 333.25-3.46L333.25-3.46L333.25-3.46Q332.86-1.92 331.52-0.90L331.52-0.90L331.52-0.90Q328.70 1.28 325.66 1.28L325.66 1.28L325.66 1.28Q322.62 1.28 320.83 0.19L320.83 0.19L320.83 0.19Q319.04-0.90 318.53-2.69ZM337.79-3.07L337.79-3.07L345.73-44.80L358.72-46.08L356.74-36.29L356.74-36.29Q356.03-33.28 355.14-31.17L355.14-31.17L355.14-31.17Q356.54-32.96 359.62-33.66L359.62-33.66L359.62-33.66Q360.51-33.92 361.60-33.92L361.60-33.92L361.60-33.92Q367.55-33.92 370.82-30.30L370.82-30.30L370.82-30.30Q374.08-26.69 374.08-19.71L374.08-19.71L374.08-19.71Q374.08-10.62 368.90-4.93L368.90-4.93L368.90-4.93Q363.33 1.28 353.22 1.28L353.22 1.28L353.22 1.28Q346.24 1.28 340.99-1.02L340.99-1.02L340.99-1.02Q339.14-1.86 337.79-3.07ZM354.05-22.40L350.66-3.65L350.66-3.65Q352.00-2.50 353.66-2.50L353.66-2.50L353.66-2.50Q355.33-2.50 356.29-3.14L356.29-3.14L356.29-3.14Q357.25-3.78 357.95-5.06L357.95-5.06L357.95-5.06Q359.87-8.51 361.41-19.07L361.41-19.07L361.41-19.07Q361.86-22.08 361.86-25.09L361.86-25.09L361.86-25.09Q361.86-28.10 361.18-29.06L361.18-29.06L361.18-29.06Q360.51-30.02 359.23-30.02L359.23-30.02L359.23-30.02Q355.33-30.02 354.05-22.40L354.05-22.40ZM410.11-7.10L410.11-7.10L410.11-7.10Q410.11-4.29 412.99-3.46L412.99-3.46L412.99-3.46Q412.29-1.09 409.54 0.19L409.54 0.19L409.54 0.19Q407.23 1.28 404.70 1.28L404.70 1.28L404.70 1.28Q402.18 1.28 400.86 0.61L400.86 0.61L400.86 0.61Q399.55-0.06 398.85-1.15L398.85-1.15L398.85-1.15Q397.70-2.82 397.70-5.95L397.70-5.95L397.70-5.95Q397.70-7.81 398.72-12.93L398.72-12.93L399.62-17.79L399.62-17.79Q400.70-23.36 400.70-25.41L400.70-25.41L400.70-25.41Q400.70-28.99 398.72-28.99L398.72-28.99L398.72-28.99Q396.22-28.99 394.62-25.34L394.62-25.34L394.62-25.34Q393.98-23.94 393.54-21.82L393.54-21.82L389.18 0L376.32 1.28L385.34-44.80L398.21-46.08L397.70-43.52L397.70-43.52Q395.90-33.66 394.37-30.34L394.37-30.34L394.37-30.34Q397.95-33.92 404.54-33.92L404.54-33.92L404.54-33.92Q411.52-33.92 412.80-29.31L412.80-29.31L412.80-29.31Q413.25-27.84 413.25-26.56L413.25-26.56L413.25-26.56Q413.25-25.28 413.15-24.29L413.15-24.29L413.15-24.29Q413.06-23.30 412.74-21.50L412.74-21.50L411.90-16.90L410.43-9.66L410.43-9.66Q410.11-8.19 410.11-7.10ZM420.96-1.92L420.96-1.92L420.96-1.92Q419.46-3.58 418.78-6.21L418.78-6.21L418.78-6.21Q418.11-8.83 418.11-13.12L418.11-13.12L418.11-13.12Q418.11-17.41 419.58-21.31L419.58-21.31L419.58-21.31Q421.06-25.22 423.74-28.03L423.74-28.03L423.74-28.03Q429.25-33.92 438.34-33.92L438.34-33.92L438.34-33.92Q441.60-33.92 443.97-32.83L443.97-32.83L454.91-33.92L450.18-8.96L450.18-8.96Q449.98-8.19 449.98-6.78L449.98-6.78L449.98-6.78Q449.98-5.38 450.85-4.48L450.85-4.48L450.85-4.48Q451.71-3.58 452.99-3.46L452.99-3.46L452.99-3.46Q452.35-1.28 450.02 0L450.02 0L450.02 0Q447.68 1.28 445.06 1.28L445.06 1.28L445.06 1.28Q442.43 1.28 440.67 0.29L440.67 0.29L440.67 0.29Q438.91-0.70 438.40-2.37L438.40-2.37L438.40-2.37Q437.38-0.77 435.20 0.26L435.20 0.26L435.20 0.26Q433.02 1.28 430.11 1.28L430.11 1.28L430.11 1.28Q427.20 1.28 424.83 0.51L424.83 0.51L424.83 0.51Q422.46-0.26 420.96-1.92ZM434.46-27.90L434.46-27.90L434.46-27.90Q433.73-26.75 433.09-24.80L433.09-24.80L433.09-24.80Q432.45-22.85 431.39-17.63L431.39-17.63L431.39-17.63Q430.34-12.42 430.34-8.70L430.34-8.70L430.34-8.70Q430.34-4.99 430.91-3.90L430.91-3.90L430.91-3.90Q431.49-2.82 432.51-2.82L432.51-2.82L432.51-2.82Q434.56-2.82 436.06-4.77L436.06-4.77L436.06-4.77Q437.57-6.72 438.14-10.18L438.14-10.18L441.54-28.93L441.54-28.93Q440.19-30.08 438.62-30.08L438.62-30.08L438.62-30.08Q437.06-30.08 436.13-29.57L436.13-29.57L436.13-29.57Q435.20-29.06 434.46-27.90ZM504.45 1.28L504.45 1.28L504.45 1.28Q496.70 1.28 496.70-4.74L496.70-4.74L496.70-4.74Q496.70-7.36 497.82-12.45L497.82-12.45L497.82-12.45Q498.94-17.54 499.33-19.58L499.33-19.58L499.33-19.58Q500.22-24.26 500.22-25.73L500.22-25.73L500.22-25.73Q500.22-28.99 497.79-28.99L497.79-28.99L497.79-28.99Q496.19-28.99 494.66-26.78L494.66-26.78L494.66-26.78Q493.12-24.58 492.42-20.16L492.42-20.16L488.45 0L475.97 1.28L479.42-16.13L479.42-16.13Q480-19.01 480.51-22.27L480.51-22.27L480.51-22.27Q481.02-25.54 481.02-26.05L481.02-26.05L481.02-26.05Q481.02-28.99 478.85-28.99L478.85-28.99L478.85-28.99Q477.38-28.99 475.78-26.82L475.78-26.82L475.78-26.82Q474.18-24.64 473.28-20.16L473.28-20.16L469.38 0L456.77 1.28L463.49-32.64L473.92-33.92L472.83-27.46L472.83-27.46Q474.50-30.91 477.57-32.42L477.57-32.42L477.57-32.42Q480.64-33.92 485.44-33.92L485.44-33.92L485.44-33.92Q488.19-33.92 489.98-32.58L489.98-32.58L489.98-32.58Q491.78-31.23 492.35-29.06L492.35-29.06L492.35-29.06Q493.44-31.30 496.22-32.61L496.22-32.61L496.22-32.61Q499.01-33.92 502.43-33.92L502.43-33.92L502.43-33.92Q505.86-33.92 507.55-33.18L507.55-33.18L507.55-33.18Q509.25-32.45 510.27-31.23L510.27-31.23L510.27-31.23Q512-28.99 512-24.90L512-24.90L512-24.90Q512-20.86 510.27-12.48L510.27-12.48L510.27-12.48Q509.38-8.38 509.38-6.88L509.38-6.88L509.38-6.88Q509.38-5.38 510.24-4.48L510.24-4.48L510.24-4.48Q511.10-3.58 512.38-3.46L512.38-3.46L512.38-3.46Q511.74-1.28 509.54 0L509.54 0L509.54 0Q507.33 1.28 504.45 1.28ZM529.66-3.07L529.66-3.07L537.60-44.80L550.59-46.08L548.61-36.29L548.61-36.29Q547.90-33.28 547.01-31.17L547.01-31.17L547.01-31.17Q548.42-32.96 551.49-33.66L551.49-33.66L551.49-33.66Q552.38-33.92 553.47-33.92L553.47-33.92L553.47-33.92Q559.42-33.92 562.69-30.30L562.69-30.30L562.69-30.30Q565.95-26.69 565.95-19.71L565.95-19.71L565.95-19.71Q565.95-10.62 560.77-4.93L560.77-4.93L560.77-4.93Q555.20 1.28 545.09 1.28L545.09 1.28L545.09 1.28Q538.11 1.28 532.86-1.02L532.86-1.02L532.86-1.02Q531.01-1.86 529.66-3.07ZM545.92-22.40L542.53-3.65L542.53-3.65Q543.87-2.50 545.54-2.50L545.54-2.50L545.54-2.50Q547.20-2.50 548.16-3.14L548.16-3.14L548.16-3.14Q549.12-3.78 549.82-5.06L549.82-5.06L549.82-5.06Q551.74-8.51 553.28-19.07L553.28-19.07L553.28-19.07Q553.73-22.08 553.73-25.09L553.73-25.09L553.73-25.09Q553.73-28.10 553.06-29.06L553.06-29.06L553.06-29.06Q552.38-30.02 551.10-30.02L551.10-30.02L551.10-30.02Q547.20-30.02 545.92-22.40L545.92-22.40ZM572.58-1.92L572.58-1.92L572.58-1.92Q571.07-3.58 570.40-6.21L570.40-6.21L570.40-6.21Q569.73-8.83 569.73-13.12L569.73-13.12L569.73-13.12Q569.73-17.41 571.20-21.31L571.20-21.31L571.20-21.31Q572.67-25.22 575.36-28.03L575.36-28.03L575.36-28.03Q580.86-33.92 589.95-33.92L589.95-33.92L589.95-33.92Q593.22-33.92 595.58-32.83L595.58-32.83L606.53-33.92L601.79-8.96L601.79-8.96Q601.60-8.19 601.60-6.78L601.60-6.78L601.60-6.78Q601.60-5.38 602.46-4.48L602.46-4.48L602.46-4.48Q603.33-3.58 604.61-3.46L604.61-3.46L604.61-3.46Q603.97-1.28 601.63 0L601.63 0L601.63 0Q599.30 1.28 596.67 1.28L596.67 1.28L596.67 1.28Q594.05 1.28 592.29 0.29L592.29 0.29L592.29 0.29Q590.53-0.70 590.02-2.37L590.02-2.37L590.02-2.37Q588.99-0.77 586.82 0.26L586.82 0.26L586.82 0.26Q584.64 1.28 581.73 1.28L581.73 1.28L581.73 1.28Q578.82 1.28 576.45 0.51L576.45 0.51L576.45 0.51Q574.08-0.26 572.58-1.92ZM586.08-27.90L586.08-27.90L586.08-27.90Q585.34-26.75 584.70-24.80L584.70-24.80L584.70-24.80Q584.06-22.85 583.01-17.63L583.01-17.63L583.01-17.63Q581.95-12.42 581.95-8.70L581.95-8.70L581.95-8.70Q581.95-4.99 582.53-3.90L582.53-3.90L582.53-3.90Q583.10-2.82 584.13-2.82L584.13-2.82L584.13-2.82Q586.18-2.82 587.68-4.77L587.68-4.77L587.68-4.77Q589.18-6.72 589.76-10.18L589.76-10.18L593.15-28.93L593.15-28.93Q591.81-30.08 590.24-30.08L590.24-30.08L590.24-30.08Q588.67-30.08 587.74-29.57L587.74-29.57L587.74-29.57Q586.82-29.06 586.08-27.90ZM657.73-10.69L657.73-10.69Q653.50-4.86 649.44-1.79L649.44-1.79L649.44-1.79Q645.38 1.28 641.18 1.28L641.18 1.28L641.18 1.28Q636.99 1.28 635.52 0.45L635.52 0.45L635.52-13.63L635.52-13.63Q631.87-3.90 625.34-0.13L625.34-0.13L625.34-0.13Q622.98 1.28 620.74 1.28L620.74 1.28L620.74 1.28Q616.45 1.28 614.59 0.45L614.59 0.45L614.59 0.45Q614.14-14.21 613.76-18.27L613.76-18.27L613.76-18.27Q613.38-22.34 613.06-24.83L613.06-24.83L613.06-24.83Q612.42-29.82 610.24-31.87L610.24-31.87L610.24-31.87Q612.99-33.92 616.83-33.92L616.83-33.92L616.83-33.92Q624.26-33.92 625.28-24.70L625.28-24.70L625.28-24.70Q625.54-22.53 625.54-20.22L625.54-20.22L625.54-20.22Q625.54-16.77 624.77-4.74L624.77-4.74L624.77-4.74Q626.30-5.44 627.94-7.97L627.94-7.97L627.94-7.97Q629.57-10.50 630.91-13.95L630.91-13.95L630.91-13.95Q633.92-21.95 633.92-28.86L633.92-28.86L633.92-28.86Q633.92-29.95 633.63-31.10L633.63-31.10L633.63-31.10Q633.34-32.26 633.02-32.58L633.02-32.58L633.02-32.58Q635.26-33.92 638.69-33.92L638.69-33.92L638.69-33.92Q642.11-33.92 643.74-31.58L643.74-31.58L643.74-31.58Q645.38-29.25 645.82-24.96L645.82-24.96L645.82-24.96Q646.34-19.52 646.34-16.26L646.34-16.26L646.34-16.26Q646.34-11.71 645.89-4.99L645.89-4.99L645.89-4.99Q649.09-7.30 651.71-14.85L651.71-14.85L651.71-14.85Q654.34-22.40 654.34-27.78L654.34-27.78L654.34-27.78Q654.34-30.14 653.95-31.55L653.95-31.55L653.95-31.55Q656.06-33.92 659.71-33.92L659.71-33.92L659.71-33.92Q661.95-33.92 663.58-32.70L663.58-32.70L663.58-32.70Q665.22-31.49 665.22-29.22L665.22-29.22L665.22-29.22Q665.22-26.94 664.54-24.51L664.54-24.51L664.54-24.51Q663.87-22.08 662.78-19.58L662.78-19.58L662.78-19.58Q660.67-14.59 657.73-10.69L657.73-10.69ZM669.73-1.92L669.73-1.92L669.73-1.92Q668.22-3.58 667.55-6.21L667.55-6.21L667.55-6.21Q666.88-8.83 666.88-13.12L666.88-13.12L666.88-13.12Q666.88-17.41 668.35-21.31L668.35-21.31L668.35-21.31Q669.82-25.22 672.51-28.03L672.51-28.03L672.51-28.03Q678.02-33.92 687.10-33.92L687.10-33.92L687.10-33.92Q690.37-33.92 692.74-32.83L692.74-32.83L703.68-33.92L698.94-8.96L698.94-8.96Q698.75-8.19 698.75-6.78L698.75-6.78L698.75-6.78Q698.75-5.38 699.62-4.48L699.62-4.48L699.62-4.48Q700.48-3.58 701.76-3.46L701.76-3.46L701.76-3.46Q701.12-1.28 698.78 0L698.78 0L698.78 0Q696.45 1.28 693.82 1.28L693.82 1.28L693.82 1.28Q691.20 1.28 689.44 0.29L689.44 0.29L689.44 0.29Q687.68-0.70 687.17-2.37L687.17-2.37L687.17-2.37Q686.14-0.77 683.97 0.26L683.97 0.26L683.97 0.26Q681.79 1.28 678.88 1.28L678.88 1.28L678.88 1.28Q675.97 1.28 673.60 0.51L673.60 0.51L673.60 0.51Q671.23-0.26 669.73-1.92ZM683.23-27.90L683.23-27.90L683.23-27.90Q682.50-26.75 681.86-24.80L681.86-24.80L681.86-24.80Q681.22-22.85 680.16-17.63L680.16-17.63L680.16-17.63Q679.10-12.42 679.10-8.70L679.10-8.70L679.10-8.70Q679.10-4.99 679.68-3.90L679.68-3.90L679.68-3.90Q680.26-2.82 681.28-2.82L681.28-2.82L681.28-2.82Q683.33-2.82 684.83-4.77L684.83-4.77L684.83-4.77Q686.34-6.72 686.91-10.18L686.91-10.18L690.30-28.93L690.30-28.93Q688.96-30.08 687.39-30.08L687.39-30.08L687.39-30.08Q685.82-30.08 684.90-29.57L684.90-29.57L684.90-29.57Q683.97-29.06 683.23-27.90ZM734.21 1.28L734.21 1.28L734.21 1.28Q726.46 1.28 726.46-4.74L726.46-4.74L726.46-4.74Q726.53-6.40 727.04-9.22L727.04-9.22L728.19-15.10L728.19-15.10Q729.92-23.42 729.92-25.28L729.92-25.28L729.92-25.28Q729.92-28.99 727.74-28.99L727.74-28.99L727.74-28.99Q724.10-28.99 722.18-19.46L722.18-19.46L718.40 0L705.54 1.28L712.19-32.70L722.69-33.92L721.66-27.65L721.66-27.65Q724.67-33.92 733.89-33.92L733.89-33.92L733.89-33.92Q738.37-33.92 740.26-32.03L740.26-32.03L740.26-32.03Q742.14-30.14 742.14-25.92L742.14-25.92L742.14-25.92Q742.14-21.95 740.10-12.67L740.10-12.67L740.10-12.67Q739.14-8.51 739.14-6.94L739.14-6.94L739.14-6.94Q739.14-5.38 740-4.48L740-4.48L740-4.48Q740.86-3.58 742.14-3.46L742.14-3.46L742.14-3.46Q741.50-1.28 739.30 0L739.30 0L739.30 0Q737.09 1.28 734.21 1.28ZM763.78-30.34L763.78-30.34L763.78-30.34Q767.23-33.92 774.53-33.92L774.53-33.92L774.53-33.92Q778.56-33.92 780.77-31.78L780.77-31.78L780.77-31.78Q782.98-29.63 782.98-25.70L782.98-25.70L782.98-25.70Q782.98-21.76 780.77-18.98L780.77-18.98L780.77-18.98Q778.56-16.19 774.46-15.04L774.46-15.04L774.46-15.04Q774.78-13.76 775.23-12.42L775.23-12.42L776.13-9.86L776.13-9.86Q777.34-6.59 778.30-5.44L778.30-5.44L778.30-5.44Q779.26-4.29 780.54-3.90L780.54-3.90L780.54-3.90Q779.84-1.28 777.28 0.13L777.28 0.13L777.28 0.13Q775.23 1.28 772.42 1.28L772.42 1.28L772.42 1.28Q764.16 1.28 763.07-11.46L763.07-11.46L763.07-11.46Q762.88-13.25 762.88-15.04L762.88-15.04L762.88-15.04Q766.08-15.94 768.32-18.94L768.32-18.94L768.32-18.94Q770.56-21.95 770.56-25.47L770.56-25.47L770.56-25.47Q770.56-28.99 768.06-28.99L768.06-28.99L768.06-28.99Q766.27-28.99 764.86-27.01L764.86-27.01L764.86-27.01Q763.46-25.02 762.82-21.63L762.82-21.63L758.59 0L745.66 1.28L754.62-44.80L767.49-46.08L766.02-38.46L766.02-38.46Q765.06-33.09 763.78-30.34ZM788.70-1.92L788.70-1.92L788.70-1.92Q787.20-3.58 786.53-6.21L786.53-6.21L786.53-6.21Q785.86-8.83 785.86-13.12L785.86-13.12L785.86-13.12Q785.86-17.41 787.33-21.31L787.33-21.31L787.33-21.31Q788.80-25.22 791.49-28.03L791.49-28.03L791.49-28.03Q796.99-33.92 806.08-33.92L806.08-33.92L806.08-33.92Q809.34-33.92 811.71-32.83L811.71-32.83L822.66-33.92L817.92-8.96L817.92-8.96Q817.73-8.19 817.73-6.78L817.73-6.78L817.73-6.78Q817.73-5.38 818.59-4.48L818.59-4.48L818.59-4.48Q819.46-3.58 820.74-3.46L820.74-3.46L820.74-3.46Q820.10-1.28 817.76 0L817.76 0L817.76 0Q815.42 1.28 812.80 1.28L812.80 1.28L812.80 1.28Q810.18 1.28 808.42 0.29L808.42 0.29L808.42 0.29Q806.66-0.70 806.14-2.37L806.14-2.37L806.14-2.37Q805.12-0.77 802.94 0.26L802.94 0.26L802.94 0.26Q800.77 1.28 797.86 1.28L797.86 1.28L797.86 1.28Q794.94 1.28 792.58 0.51L792.58 0.51L792.58 0.51Q790.21-0.26 788.70-1.92ZM802.21-27.90L802.21-27.90L802.21-27.90Q801.47-26.75 800.83-24.80L800.83-24.80L800.83-24.80Q800.19-22.85 799.14-17.63L799.14-17.63L799.14-17.63Q798.08-12.42 798.08-8.70L798.08-8.70L798.08-8.70Q798.08-4.99 798.66-3.90L798.66-3.90L798.66-3.90Q799.23-2.82 800.26-2.82L800.26-2.82L800.26-2.82Q802.30-2.82 803.81-4.77L803.81-4.77L803.81-4.77Q805.31-6.72 805.89-10.18L805.89-10.18L809.28-28.93L809.28-28.93Q807.94-30.08 806.37-30.08L806.37-30.08L806.37-30.08Q804.80-30.08 803.87-29.57L803.87-29.57L803.87-29.57Q802.94-29.06 802.21-27.90ZM846.14-17.98L846.14-17.98L846.14-17.98Q848.45-22.08 848.45-26.24L848.45-26.24L848.45-26.24Q848.45-28.99 846.46-28.99L846.46-28.99L846.46-28.99Q844.93-28.99 843.33-26.37L843.33-26.37L843.33-26.37Q841.66-23.74 841.15-20.35L841.15-20.35L837.82 0L824.58 1.28L831.10-32.64L841.66-33.92L840.51-27.46L840.51-27.46Q843.65-33.92 850.69-33.92L850.69-33.92L850.69-33.92Q854.40-33.92 856.42-32L856.42-32L856.42-32Q858.43-30.08 858.43-26.14L858.43-26.14L858.43-26.14Q858.43-22.21 855.84-19.71L855.84-19.71L855.84-19.71Q853.25-17.22 848.83-17.22L848.83-17.22L848.83-17.22Q846.91-17.22 846.14-17.98Z" fill="url(#editing-shiny-gradient2)"></path></g></g><style>text {
  font-size: 64px;
  font-family: Arial Black;
  dominant-baseline: central;
  text-anchor: middle;
}</style></svg>